<?xml version='1.0' encoding='utf-8'?>
<svg xmlns="http://www.w3.org/2000/svg" version="1.1" viewBox="0 0 1440 1440" fill="rgba(0,0,0,0.15)"
> <path d="m0 0m69 1311c16.1 1.3 35.3-3.7 49-6 14.7-4.4 30-8 45-12 14.3-4.7 30.1-10.1 42-15 14.7-4.8 27.8-10.6 41-16 12.5-6.9 27.9-12.7 39-19 12.3-6.7 24-13.9 35-22 12.3-6.3 22.3-15.2 34-22 12.6-6.5 22.9-15.1 35-22 11.9-7.1 25.2-15.1 35-23 11.6-7 22.1-15.4 33-23 12.5-7 24.3-16.4 35-23 12.4-6.6 22-15.9 39-18 21.4-9.1 27.3-9.1 5 1-7.2 12.1-25.9 12.2-35 22 4.2-0.4 26.6-7.3 37-12 20.9-10 11.6-14.1 20-19 10.3-8.3 24.4-15.4 34-23 5.6-5.4 41.3-19.2 11-13-12.5 7.2-23.2 17.8-36 22-13 6.3-26.5 11.7-43 14-14.5 4.6-24.3 16.1-36 22-11.3 7.4-21.2 16.3-33 23-11 8.3-22.7 15.4-35 22-10.6 8.2-21.7 16.1-35 22-10.3 8.4-24.7 15.2-34 23-11.6 7.6-22.1 16-34 23-11.8 7.3-24.3 16-36 22-12.3 6.4-25.7 11.9-38 18-13.1 6.5-27.6 13.2-42 17-13.1 5-26.6 10.4-42 14-13.8 5-29.2 8.4-45 11-13.6 5.7-30.9 7.2-45 12m-17-4c19.8 1.7 40.3-2.9 57-8 17.4-3.7 37-7.8 51-14 17.5-4.3 36.3-9.1 49-16 18-4.3 31.5-14.5 46-20 15-7.5 30.7-14 44-23 13.3-8.4 28-17.4 39-27 12.7-8.6 27.4-17.6 40-26 13.1-7.8 28.5-16.1 39-25 14.8-8.2 27.6-17.6 42-26 12.2-9.1 26.7-18.3 38-27 3.3-7.6 47.9-23.4 17-18-15.4 6.5-28.6 17-41 24-12.2 10.2-24.8 21.3-38 29-11.4 9.7-25.9 18.9-38 27-7.9 5.7-44.8 25.3-18 9 13.6-8.3 27.4-18.2 38-27 16.3-6.7 27.8-17.5 40-27 12.7-9.6 26.8-19.2 38-29 13.5-7.3 31.9-12.6 41-24 12.1-9.3 31.3-13.8 41-24 13.5-9.1 31.3-13.5 46-21 1.6-6.6-30.9 7.3-41 9-16 5.7-36 9.4-51 14-16.3 6-35.5 10.4-48 18-14.7 7.7-27.4 17.3-42 25-13.3 8.5-28.9 16.6-40 25-13.5 8.8-27.9 18.1-40 26-13.5 8.4-28.3 17.3-41 24-14.7 7.8-29.9 16.3-44 22-15.2 6.9-30.9 14.8-46 20-16 5.6-33 12.3-50 15-15.7 6.5-36.2 9.7-53 13-19.2 3.1-39.8 4.8-59 8-13-3-62.8 6.5-34 6 17.3-4.8 45.7 0 61-5 19.8-1.8 40.5-4.8 56-9 19.5-3.2 37.8-7.2 53-14 17.1-4.9 35-10.7 49-17 14-7.6 31.9-13.4 45-21 15.1-6.1 30.6-14.2 42-23 13.9-8.4 28.4-16.2 41-25 13.3-9.4 28.1-18.1 40-26 12.6-9.6 28.9-17 41-25 14.9-6.9 30.5-14.9 44-21 2.5 2.7-36.7 16.9-27 18 16.8-5.5 30.6-15.4 45-21 19.6-5.1 46.8-11.3 16 1-11.9 10.6-29 17.1-42 25-13.3 8.3-25.8 18-38 28-12.2 9.7-24.8 20.7-37 28-14.4 8-27.4 18.8-42 25-11.3 9.8-26.7 18-39 25-13.8 9.4-28.7 16.7-44 24-13.9 7.6-30.7 14.4-45 20-2.5 3.1-10.5 3.2-12 5-26.5 6.1-3.7 8 9 2 15.8-6.7 31.7-14.5 45-21 15.7-6.9 30.1-14.7 45-22 28.2-18.4 9.4-1.1-6 5-12.6 9.5-26.4 19.4-39 27-14.3 7.5-28.3 17.1-43 22-14.6 7.7-29 17-45 21-14.6 7.3-33.7 11.9-49 16-17.3 5.2-35.2 10.9-52 15-16 5.1-38.8 5.9-54 11m1163-24c12.6 6.7 31.1 9.3 43 14 16.3 3.6 31.3 7.4 47 10 6.5 4.2 51.9 8.6 25 0-15.5-2-31.5-4.9-46-10-15.5-2.6-30-7-45-12-12.9-4.8-27.7-8.9-42-14-12.6-5.7-27-10.1-39-18-12.6-5.2-26.4-10.3-39-18-10.6-7.1-24.1-14.8-34-23-12-6.3-22.2-14.9-35-22-9.7-8.1-22.1-14.6-35-22-10.1-7.3-21-15.3-33-23-11.1-6.9-23.3-13.6-34-23-10.3-7.3-22.5-13.9-34-22-9.1-9-20.9-16.1-38-19-13.8-3.9-27.4-9.2-39-17-12.8-5.7-24.8-14.9-39-19-9.4 4 20.8 11.7 24 19 14.9 5.4 21.7 17.4 31 26 11.5 8.3 22.2 16.5 38 19 18.3 8.1 25.4 0.3 6-9-26.1-13.1 2.8 11.9-22-6-25.7-12.9 6.8-2.2 17 1 13.4 6.2 22.6 15.9 35 22 12 7.5 25.5 15.1 36 22 11.9 7.1 21.6 16.3 33 23 11.2 8.4 23.6 14.8 33 23 13.6 6.6 23.4 15.6 35 22 11.5 8.3 23.2 15.4 35 22 11.7 7.6 22.3 15.8 36 20 12.7 7.1 25.6 13.2 38 18 14.5 5.9 27 12.3 42 16m24 0c12.8 5.2 27.9 9.6 41 11 13.8 4.8 29.4 8.9 43 11 9.2 4.7 46.5 6.8 20-2-13.5-2.6-29.6-6.1-44-9-13-2.9-28.4-7-41-11-14-2.6-27.4-8.7-41-12-12.7-3.6-25.8-10-38-14-10.6-6.1-22.9-11-34-18-11.7-4.7-23.7-12.3-33-19-10.9-6.3-22.7-14-32-21-10.2-4.8-31.3-20.3-9-8 10.3 7.7 22.5 12.6 33 18 11.9 6.8 25.8 12.4 36 17 9.9 4.3 30.5 15 37 8-13.3-3.1-26.8-9.2-38-14-11.7-5.2-23.7-10.3-35-17-10.8-5.7-23.5-12.6-35-18-10.1-6.1-22.7-13.1-32-21-10.8-5.2-22.1-13.5-32-20-9.4-7.3-23.6-12.6-32-21-9.3-7.1-19.4-16.6-30-23-7.9-8.2-20.7-15-29-23-10.4-6.4-24-12.4-34-19 3.2 3.6 23.7 5.6-2-5-12.7 1.1-38.5-17.2-16-7 15.3 3.4 32.6 5.7 35 18 11.5 6.9 22.9 15 31 22 9.6 8.3 21.1 13.9 29 22 11.7 6.9 22 16.1 31 22 10.6 7.6 23.2 14.7 31 22 11.7 6.2 23 14.5 32 20 10.8 7.6 23 12.6 32 19 13.5 5.7 24.9 13.8 36 17 11.4 7.5 26 12.4 36 17 10.5 5.3 30.3 12.6 42 6-15.7-1-29.1-7.1-42-11-10.8-5.6-25.3-10.7-36-17-10.9-5.2-22.3-13.4-33-19-8.7-8.1-22.6-13.8-32-21-10.5-5.8-22.7-10.7-31-20-9.8-7.2-20.3-16.2-31-22-7.4-9.3-22.3-14-29-23-11.1-6.3-22.4-14.5-31-22-17-8.6-20.8-12.1 1-4-8.9-7.7-23.5-12.8-33-19 8 0.4 22.8 11.4 32 15 11.8 6.2 23.8 13.7 33 19 11.3 7.2 23.3 12.3 32 20 11.7 6.5 23.3 14.4 32 20 12.5 6.3 21.7 16.7 33 21 9.6 7.9 23.3 13.8 33 19 11.8 6.2 23.2 12 35 17 13 4.7 27.4 9.9 37 15 12.4 6 28.5 9.5 39 14 14.7 3.4 28.6 9.1 42 11 14.6 2.9 28.8 5.9 44 7 15.8 2.5 32.1 5.7 47 5 15.7-2.4 40 8.8 43 0-13.1-3.3-33.3-2.6-48-5-13.8-2.1-31-2-45-6-15.1-1.5-31.6-4.5-45-8-13.4-2.8-28.2-7.6-41-11-12-5-27.6-8.9-39-15-10.3-5.1-23.9-8.7-36-15-11.2-4.9-23.4-12.3-34-18-10.9-6-24-12.4-34-19-10.9-5.6-21.5-14.6-33-20-9-7.2-21.8-14.1-31-21-10.4-6.6-22.2-14.3-33-20-10.5-6.2-22.6-13.6-33-20-10.3-6.1-23.9-12-37-16-7.6-2.9-40.4-11.4-11-6 12.5 5.2 28.7 8.5 38 14 10.8 7.6 24.2 13.8 32 21 13.2 4.9 24.1 13.6 34 19 10.5 7.1 22.2 12.5 31 20 11.6 6.7 23 14.8 32 21 10.4 7.5 24.1 13.4 33 19 12.4 6.3 25.1 13.1 35 18 12.3 5.8 23.3 12 36 16 11.8 6 25.8 11.6 37 15 12.1 6.4 29.8 8.3 40 13 14.5 3.8 30.6 7.2 44 9 15.1 2.8 31.4 6.1 46 6 14.9 3.7 33.7 4.6 49 4 13.4-4.7-26-4.1-34-6-14.8-1.4-32.4-3.5-46-7-14.6-1.1-28.1-4.8-44-7-12.2-4.2-27.7-8.3-39-13-13.1-4-28.8-7.9-39-14-11.7-5.1-23-13.4-35-18-11.7-4.6-22.7-10.8-34-17-11.4-5.6-24-12.5-35-18-10.8-5.9-23.7-12.5-32-21-11.2-5.2-22.1-13.9-32-20-10.7-6.2-20.5-13.5-33-19-9-7.6-21.3-14.8-32-21-10.5-5.8-25.4-10.4-37-15-13.5-3.5-29.6-6.9-42-11-10.9-5.8-27.3-8.9-40-13-12.2-1.4-30.6-10.1-40-7 10.8 7.1 28.4 9 40 13 11.6 5.9 29 8.1 40 12 26.7 8.4-10.5 0.7-17-3-14.4-2.7-27.8-8.9-41-12-28.9-7.3 0.6 10.3 10 9 13.4 4.8 23.9 14 33 19 6.8 2.3 35.2 19.9 20 12-10.9-6.1-26.3-10.2-36-17-10-6.7-25.1-11.1-38-15-26.4-3 11.9 10.4 16 11 13.2 5 22.9 12.4 35 17 14.1 3.7 24.5 12.9 36 17-13.9-17 10.5 5.6 19 5 10.9 7 23.1 14.4 31 22 10.9 6.5 20.3 14.3 29 22 10.6 7.5 21.3 16.4 31 21 13.2 5.6 24.1 14.3 32 21 21.3 10.2 17 13 0 1-9.4-6.3-18.6-14.3-31-20-17.3-4.4 14.1 13.2 16 16 11.1 7.4 22.7 15.4 32 21 11.7 6.6 22.8 15 32 21 10.5 7.2 20.4 14.5 31 20 11.4 7 21.4 16.5 33 19 11 8.1 24.8 13.9 35 18 12.4 6.4 25.3 13.1 37 16 11.7 6.6 26.1 9.3 39 13m-1027-48c17.4 1.6 32.1-7.1 46-13 14.5-5.3 29.3-12.4 41-19 13.6-7.1 27.7-13.6 40-22 13.7-6.1 26.6-15.3 37-23 14.1-6.7 24.9-16.6 38-24 11.2-8.8 24.8-17.3 34-26 14-7 23.7-17.8 36-26 7.7-6.7 32.7-19.6 26-24-13 7.3-28.1 12.7-39 23 6.2 0.9-18.3 17.1-25 22-11.7 8.8-25.7 15.4-38 24-11.6 8.1-24.5 17.3-36 25-11.4 8.3-24.1 16.1-38 23-11.4 8.4-24.3 17.6-37 23-11.7 9.2-27.5 14-42 20-12.6 7.5-30.1 12-43 17m-182-4c14.1 1.1 36.6 0.9 48-2 15.8-1.9 34.2-3 46-7 16.6-0.8 32.5-4.5 44-9 14.1-2.7 27.4-6.6 40-11 14.3-3.2 27.4-9.7 38-14 13.7-4.5 26.1-11.7 38-16 10.5-6.5 24.2-12.3 33-19 12.8-4.6 22.3-12.3 34-18 11.2-6 22-14.6 32-21 11-5.8 21.8-14.6 32-20 10-7.5 23.7-13.4 32-21 12-5 21.2-13 32-19 11.9-5.8 26.1-11.2 37-16 13.4-3.7 29.4-4.9 40-11 15.4-2.5 30.2-7.2 41-12 13.5-3.8 28.4-6.1 35-16-9.9 2.4-24 11-38 11-13.6 4.4-28.1 9.4-40 13-11.5 6.2-29.7 7.5-41 12-12.7 4.5-24.8 9.5-36 15-12.6 5.2-23.8 13.6-34 19-10.5 7.1-21.7 15.4-33 20-9.4 7.9-21.2 15.7-31 21-10.4 7.3-19.8 15.1-32 20-11.6 5.8-24.6 12.4-35 18-11.1 6-24.4 12.3-35 18-11.6 5.2-24.2 12.1-34 18-12.1 5.2-25.5 8.9-39 13-10.3 6.6-28 8.6-40 12-13.2 4.3-27.6 7-42 9-14.4 3.7-34 3.7-47 7-13.7 2.9-32.8 0.9-45 6m732-68c11.9 8.4-5.3-14.9-8-20-9-10.8-13.4-20.7 2-7 8.2 2.1 29.3 14.1 24-1-3.1-11.6-9.4-20.8-14-32-6.3-7.6-5.7-27.4-4-40-6.6-8.1-13-17.2-22-25-13.4-17.2-4.6 5.6 3 11 5.7 9.4 19.6 14.8 13 28-1 16.8 3.9 27.4 9 37 10.4 17.9 6 15.2-3 0-5.2-9-12.4-17.3-13-33-3.8-23-10.7-9-4 6-5.9-8.1-4.9-24.5-11-34 10.6-0.5-7.1-17.5-12-22-4.7-8.8-19.4-15.9-29-7l-24 23c-4.3 15 12.9-8.2 18-10 4.9-8 21.8-17.3 29-5 6.7 9.6 20 13.4 15 26 4.4 11.8 4 27.6 10 36 6.7 9.7 13.3 18.6 20 27 3.6 6.6-14.3-10.3-20-14-6.3-8.3-15.9-14.1-21-25-1.8-11.8-7.8-24.6-9-35-6.3-9.6-5.8 21.7 0 26 3.1 12.9 9.5 21.9 18 28 7.7 8.6 15.4 16.3 23 24 6.7 3 29.9 18.9 10 7-10.6-3.7-16.6-13.1-27-19-4.8-5.4-21.3-25.3-10-5 5.9 9.9 13.2 18.1 18 28 4.4 11.7 11.3 20.3 19 27m-166-4c8.4-4.1 12.9-19.9 17-32 3.9-12.9 5.4-28.6 13-38-10.8 1.6-13.4 19.4-17 32-1.7 15.2-7.7 26.3-13 38m5 0c10.1-4.6 18.4-20.5 23-32 8.3-10.8 9.8-28.2 12-45-7.7 7.2-7.4 31.7-14 41-6.5 12.8-12.8 25.3-21 36m-457-2c13.6 0 27.1-10 38-14 12.1-6.4 24.8-11.7 36-18 12.2-6.4 24.6-12 36-18 11.8-6.7 25.7-10.9 37-17 14-4.8 28.1-11.1 39-17 12.9-5 27.2-8.7 37-17 16.4-1.4 27.8-8.1 40-14 13.6-4.3 27-8.8 41-13 13.9-4.2 29.6-8.9 41-14 24.2-8.2-9.3 7.5-18 8-5.3 3.1-40.1 12.7-23 13 13.4-5.1 28.6-7.9 40-14 14.6-4.1 27.1-12 44-12 14.4-3.3 34.8-0.9 46-8 13.4-4.3 28.9-6.8 40-14 10.8-3.8 29.2-23.6 6-9-11 7.2-25.1 13.4-39 16 1.6-1.9 23.3-8.8 32-14 25.2-12.5-4.7-4.3-14 1-12.9 5.4-25.3 11-39 15-13.3 5.2-32.1 6.8-46 9-13.4 0-25.3-0.4-43 4-4.3 3.6-42.6 12.8-22 12 27.7-9.8 10.7 0.6-7 2-13.4 5.4-29.9 9.3-41 14-12.9 6-26.2 10.7-39 16-12.5 5.3-25.6 10.3-39 15-12.3 5.6-23.6 12.3-38 16-12.4 5.8-27.1 11.4-39 16-11 7.1-24.4 11.8-36 18-11.3 6.9-23.5 12.6-36 18-8.8 9.4-24.1 12-34 20m479 0c17.3-4.3 37.2-13.8 48-26 13.5-11.1 24.4-25 31-44 4.8-0.6 2.7-11.7 5-14-3-27.3-6.3 18.9-16 17-10.7 13.7-23 26.3-38 36-17.7 9.9-37.2 31.3-7 10 16-9 31-18.9 40-35 17.4-16.8-9.7 23.7-18 26-12.4 12.5-29.7 20-45 30m-32-2c12.8-4.8 14-28.6 18-46 3.3-18.8 16.4-28 27-40-12.2 6.1-25.4 18-31 34-4 17.8-6.1 38.1-14 52m-453-3c11.7-0.9 24.3-7.8 34-13 10.7-5.1 22.2-11.6 31-17 11.7-3.6 21.6-11.7 32-15 9.8-6.1 24.7-9.2 32-16 13.4-2.8 23.5-9 36-13 10.8-4.5 23.1-10.2 33-14 11.5-4.5 24-9.9 34-14 10.1-5.4 24.9-8.6 33-14-11.5-0.2-25 5.8-36 10-11.6 3.9-23.4 10.1-34 13-10.7 5.4-23 11-34 14-10.2 5.4-24.2 9.4-33 14-11.3 5.6-23.4 9.7-35 14-10.5 5.6-21.5 12.5-31 17-11.2 4.5-21.8 11.8-31 17-10.2 5-21.7 11.4-31 17m476 0c14.6-10.7 29.1-28.8 40-44 18.1-10.3 18.6-38.2 27-58-14.8 9.9-11.8 45.5-30 54-10.3 17.6-25.6 30.6-37 48m52-3c12-1.1 18.7-15.4 25-26 7.1-10.9 14.6-21.4 18-36-7.8 5.7-12.7 21.9-20 31-7.2 11.2-13.7 22.8-23 31m74 0c11.4 3.1-4.4-19.2-8-26-5.7-9-11.3-19.7-18-31-6.1-6.5 4.5 22.5 7 27 8.2 9.2 11.8 21.9 19 30m125 0c7-3.6-9.4-19.2-14-27-8.9-12.6-18.3-20.9-2-9-5.1-10.8-16.6-16.4-23-28-6.8-4.5-17.8-24.3-24-18 6.4 2.2-26.2-21.8-7-2 6.3 12.6 18.5 17.6 25 27 7.3 11 13.5 21.9 22 30 7 10.1 16.5 19.4 23 27m-300-1c17.1-5.5 27.3-25.6 35-41 6.3-20.3 25.5-28.8 35-44-13.8 8.4-29.8 22.6-38 38-8.6 17.5-18.9 35-32 47m239 0c12.8 0.9 2.3-29.6-1-40-1.5-23.2 9.8 19.1 13 22 6.5 13.2 18.3 22.6 26 32 4.7-9.4-14.8-21.2-17-34-7.7-9.5-14.1-25.9-23-33-4.1-10-15.4-22.8-23-32 1.4 9.3 12.9 25 16 36 3.1 17.2 9.5 32 9 49m39 0c14.5 17.6 16.7 8.5 3-5-9.1-8.3-13.1-23.8-18-35-5.2-12.8-19.4-17.3-26-25 14.6 6.4-4.3-12-10-19-3.4-5.6-31.8-25.7-16-8 7.3 11.5 18.5 19.9 25 29 3.7 13.9 16.5 20.6 20 32 6.8 11.5 14.6 23.2 22 31m392 0c3.8 3.8 12.9 4.6 14 7 29.9 6.4-9.8-12-18-15-16.3-10.9-35.9-19.5-55-30-20.1-7.3-39.4-18.3-60-25-7.8-3.9-63.5-25.9-34-16 21.6 8.3 42.2 18 62 25 18.8 9.9 40 17 56 28 20.8 9.1 39.4 20.8 58 28 20.4 2.8-23.8-18.9-33-25-21.1-7.3-37.7-21-59-27-18.1-10.1-39.2-17.2-59-26-20.5-7.9-42.8-15.9-61-26-18.2-9-34.1-21.3-59-26-23.7-3.7-45.7-12-67-19-7.2 1.4-13.5-2.2-19-2-39.4-6.3 2.9-1.5 18-2 21.9 7.8 49.7 10.3 73 13 26.1 3.3 50 7.7 75 10 26 3.7 53.6 6.4 79 7h85c31.4 2.3 57.2-2.2 83-4 25.6-2.3 47.9-8.2 73-12 5.2-1.2 14-2.3 17-5 21.8-9.6-24.4 2.9-34 3-23.1 4.9-48.6 7.7-74 10-25.4 3.9-54.8 4.8-83 4-28.3 1.2-55.1-0.4-82-3-27.5 0.1-53.9-3.8-78-7-24.7-3.4-51-5.4-75-11-6.7 1-13-2.6-19-2-15.8-1.6-55.9-7.1-14-4 26.8 1.9 47.2 9.8 73 12 25.7 3.3 55.1 4.2 77 9 26.2 2.5 53.4 3.6 80 5 28.2-0.5 60.5 1.6 85-2 26.1-1.3 53.8-1.9 75-9 27.5-1.2 53-6 74-12-28.4-0.3-49.5 7-75 10-25.5 2.9-52.3 6.4-80 6-24.5 3.2-56.1 2.1-82 0-28.3 0.9-54.2-3.5-81-5-25.8-1.4-51.6-3.9-76-9-24.5-3-47.7-10-74-11-26.3 3.6-55.4-0.1-77-6-20.4-7.5-51.3-6.8-67-19-37.3-21.5-15.7 5.9 9 9-35-0.9 29.4 12.8 34 18 25.4 8.9 39.6 8.1 67 13 26.5 3.4 45.9 14.3 66 21 20 8.5 41.7 15.1 60 24 37.1 15.3-22.9-7.5-31-12-19.8-6.8-40.6-14.3-61-23-21.3-10.9-47.2-6.2-70-11-26-1.4-43-12.7-64-21-6.7 0.7-11.5-4.3-17-5-32.3-9.3 5.5 9 16 10 30.4 14.8-26.8-6.6-35-11 3.7 12.7 34.9 20.1 53 25 20.7 8.6 52.1 5.5 70 15 23.4 6.1 42.7 17.2 61 25 18.6 10.7 35.9 21.7 55 30 34.1 28.9 3.7-11.2-13-14-17.7-9.7-37.6-18.1-56-29-5.5-0.4-10.8-5-16-6-29-11.8-11.4-7.6 9-1 25.2 4 44.6 12.8 65 20 19.5 9.9 42.9 16.8 61 25 21.1 8.1 39.8 17.6 59 25 22.7 7.7 39.9 20.8 60 27 19 10.2 37.6 19.8 56 29m-689-2c11.9-7.4 21.1-17.9 32-27 10.6-8.3 20.9-19.2 27-30-6-0.6-28.4 33.1-14 9 8.7-10.9 20.9-19.9 30-29 7.2-3.6 27.2-35.1 7-15-9.1 9.6-21.7 18.2-29 28-6.9 13.2-17.9 21.9-26 34-8.3 10.4-21.4 18.5-27 30m247 0c7.6-23.3-5.9-49-12-69-1.3 19.2 10.7 46.5 12 69m-251-10c11.4-0.2 17.4-13.9 26-20 7.8-8.1 17.9-16 23-25-7.1 4.7-16.2 15.2-26 21-6.8 8.3-16.6 16.4-23 24m241-2c8-8-4.7-37.1-6-54-6.7 7.5 4.4 38.3 6 54m-246-3c11.5-2.4 20.4-16.9 30-23 8.4-9.3 19-16.7 25-28 9.5 0.7 18.6-15.8 27-22 5.4-7.7-15.2 13.1-22 16-6.4 5.7 15.3-16.3 20-20-7.7 1.4-19 14.3-27 22-9.4 8.6-13.5 22.5-26 28-8.4 9.6-17.4 18.6-27 27m-9-1c8.4 1.5 18.6-14.4 24-21 10.2-6.4 14.7-18.2 24-26 8.4-7.1 18.6-13.1 25-23 5.3-1.8 33.8-17.6 16-13-11.9 5.3-23.5 12.5-32 18-8.9 8.3-20.9 12.5-26 24-8.1 7.9-18.3 14-27 21-10.1 20.7 11.3-3.5-4 20m102-4c14.3-7.9 12.9-38.4 20-57-13 9.6-10.2 41.5-20 57m-92-5c0.5-6.2 22.3-29.9 34-41-0.9 5.1-24.1 27.4-34 41m324-2c6.7 10.7 21.4 21.3 14-3-3.8-10.8-14.5-15.5-23-24l-23-23c-9.5-4-18.9-11.7-28-16-7.7-7.4-30-12.1-10 0 9.7 5.7 17.4 13.5 27 19 6.9 8.8 16.9 14.3 21 24 7.9 8.4 17.3 16.1 22 23m-87-1c4.5-6.6-3.9-28.5-4-41-6 9.9 0.4 33.6 4 41m-278-8c9.4-2.2 22.9-10.8 32-15-12.9-1.2-24.2 9.4-32 15m179-18c10.5-6.1 11.6-29.2 17-45-11.3 6.7-8.9 33.3-17 45m4 0c17.3-6.7 21.8-34.8 28-55-13.7 11.1-14.5 43-28 55m-8-2c11.4-6.2 7.1-37 18-45-14.1 3.2-12.4 31.3-18 45m53-4c18.3 18.7 3.4-27.4 2-37-20.6-16.8-1.7 28.5-2 37m321-13c18.1 1.5-19.2-12.2-27-17-13.8-6.2-26.2-15.2-44-20-16.4-1.5 21.4 12.9 26 18 17.1 5.1 28.3 15.4 45 19m-404-5c12.2-7.6 26.3-21.4 35-33-12.7 6.1-26.2 20.4-35 33m-108-4c16.4-4.6 34.4-14 51-22 15.4-8.7 35.7-13.3 50-24-16.3 4.6-36.3 12-53 19-15.6 9.4-34.9 15-48 27m-137-1c21.8-1.1 43.7-10.2 59-19-19.4 3.1-40.7 12.8-59 19m20 0c14.1 0.6 31.9-4.3 40-10 9.5-8.6 26.1-11.6 36-17-12.8-0.4-28.9 6.3-38 11-9.8 8.3-27 10.7-38 16m-34-1c23.2-3 45.4-13 67-21-24.5 2-45.3 13.5-67 21m577-4c20.5 12.8 48.1 12.6 12 0-17.5-7.6-36.9-15.2-52-25-16.6-6.7-35.1-17.8-55-18-19.8-4-41.3-7.4-59-15-20.4-9.3-49.5-14.6-16 1 20.4 6.1 41.8 11.7 59 17 21.2 5.1 47.5 5.9 60 17 19 5.8 32.5 17.3 51 23m-381-4c12-5.6 29.6-12.3 42-21-13.9 4-32.6 9.5-42 21m-266-7c14.5-1.9 33.8-8.3 50-10 17.5-3.3 36.9-4.6 52-10 14.1-6.5 32.7-8.5 47-14 16.5-4.8 33.2-8.7 52-11 17-3 29.2-11.4 45-16 7.6-2.7 53.7-12.9 18-11-17.1 4-31.3 10.4-50 12-16.4 4.4-36.7 4.7-58 4-18.2-2-36.1 3.6-53 6-21.2-0.5-37 4.3-55 7-18 2.5-36.1 4.9-55 6-17.2 3.9-38.6 3.1-57 5-20.9-0.1-38.1 3.3-60 2-20.6 0-39.9-1.3-60-3-18.6-0.7-37.3-2.6-55-6-8.3-1.1-51.4-9.1-41 0 18.4 2.9 41.1 3 55 7 18.9 3.1 38.5 4.1 57 5 19.7 2.1 39.7 2.6 60 2 21.1 0 40.2-1.5 59-3 21.8 0.9 39.8-1.7 57-5 17.9-2.7 37.5-3.7 54-8 16-4.3 39.6-1.3 55-6 9.5-3.1 50.1-6.3 43-4-18.6 2.3-36.5 4.9-54 8-39 4.5 4.1 7.4 18 2 17.5-2.5 36.6-4 52-9 14.6 0.1 57.6-6.2 21 0-17.9 3-35.7 5.8-50 12-13.4 7.1-35.1 6-50 11-16.9 4.3-34.3 7.6-50 12-16.4 4.6-34 7.6-47 15m493-3c17.9 15.1 32.3 8 5-3-19.6-12.8-34.7-5.1-5 3m253 0c5.5 5.8 40.7 15.5 21 3-12.1-4.4-24.9-11.2-36-16-4.6-5.4-46.2-10.8-22-3 13.2 4.9 25.6 12.1 37 16m-737-7c18.5-1.9 37.9-11.2 56-15-22.5-2.2-40.8 8.3-56 15m725-9c13.8 11 46.2 18.3 16 1-14.3-7.2-33.9-12.1-54-14-18.8-3.6-58.8-3.3-19 3 19.4 3.5 42.8 4.6 57 10m-798-5h-60c-20.5 0.9-41.1-0.5-58-3-18.3-0.7-39.2-1.8-56-5-13.6-0.7-36.9-7.4-47-4 14.7 6.5 35.6 7.6 51 9 17.3 4 36.8 4.2 54 6 18.6 2.2 42 0.7 59 1h60c21 1.3 40.9-0.8 56-4 20.4 0.2 40-2.2 54-6 5.4 2.3 27.4 3.6 45 0 8-2.9 52-5.3 32-9-16.2 3.1-37.4 3.9-54 6-2.5 0.3-12.8 2.8-7 0 22.1-6.1-13.3-3.2-20-1-17.1 2.3-37.1 4.3-54 6-18 1.6-35.7 3.6-55 4m301-5c14.8-0.9 33.4-7.2 45-13-13.8 2-34.4 6.4-45 13m153-10c3-18.4 19.4-31.5 24-49-0.2-25.6 30.9-19.4 44-31 17.7-7.3 18.1-31.7 40-35 6.6 0.8 12.6-2.3 17-2 4.2-0.4 13.6 5.7 36 1 11.8 1 70.4-5.7 38-8-16.8-0.1-56.1 7.6-55 4 22-2.7 43.7-5.9 67-8 23.6-0.7 36.8-12.3 60-14 23.1-1.7 51 1.3 71-4 18.4 2.2 62.1-1.1 59 0-11.7 2.2-76.9 0.3-32 7 26.3 2.8 44.7-7.6 69-3 21 4.2 38.6 14 63 9-15.9-3.5-37.1-9.7-58-14-21.3-2.3-43.5-4.9-69-5-25-0.3-44.2 5.4-71 4-23.5 0.8-46.5 2.6-65 9-19 5.9-42.4 7.3-65 10-20.7 3.8-45.5 3.8-69 5-23.1 1.9-20.7 29.2-40 35-19 5.5-44.6 4.8-50 24-4.8 32.3-25.7 15-30-6-8.7-15-39-9.5-54-21-3.4-3.2 27.5-16.1 40-22 8-1.5 13.9 0.2 5 2-1.7 5.9 31.9-4.3 42 1 5.2 1.3 12.7 2.9 15 4-19.4-10 12-4 18 4 15.1 26.4 37.1-7.7 33-18 9.4-16.9 47-21 9-7-6.8 13.6 33.5-5.3 51-1 26.5 2 45.7-3.6 66-8 22.6-2.4 41.5-8.3 63-11 23.5-2 51 0.5 70-5 23.4-2.7 47.9 0.1 71 1 15.8 3 73.1 3.1 27-4-23-1.4-48.4-0.9-74-1h-19c-34.1-1.3 19.3-1.4 26-2 18.8-5.3 46.6-2.7 67 0 13.4-0.4 56.2 18.5 43 6-15.6-8.5-31.8-17.2-51-24-14.8-8.7-47.6-3.7-66-1 2.3-2.2 39.4-9.3 56-4 16.1 2.9 43.6 17.9 50 12-17.6-6.8-35.2-14-57-18h-19c-26.1-2 21.4-2.5 28-1 18 0.9 45.4 16 52 10-16.7-7.9-36.8-12.6-60-16-22.3-6.2-42.7 3.3-65 4-23.4 5.3-45.2-4.8-70 0-17.3 4-44.1 11.1-47 20 19-6.2 45.7-4.3 69-6 4.9-1 14.6-0.4 17-2 37.1-0.8 17.8 2.7-4 2-20.7 4.4-45.6 4.4-65 9-10 7.5-54.1 10.4-44 16 20.1-4.7 44.6-5.1 65-9 25.1-0.3 46.3-4 72-3 19.8-3.4 70.2-0.6 18 0-20.5 4.2-47.4 2.2-70 4-20.3 5-48.2 2-68 7-31.3 5.2-33 6.8-54 2-21.1-5.5-47 2.2-65 0 5-6.3 62.2-14.3 39-8-44.5 8 12.8 4.3 29 4 25.5 0.5 43.1-6.7 65-10 29.6-11.9-27.4 0.7-36 3-4.8 1.2-13.1 1.9-17 2-28.5 1.7 20.2-3.3 23-6 22.3-2.9 31-19.1 53-22 4.3-1.8 13.1-2 15-4 41.3-7.4-26.2 0.8-5-4 5.8-0.2 12.5-2.6 17-2 17.4-2.1 6.2 6.7 33 6 23.6 3.5 46.5-2 66-6 21.5-1.8 45 4.1 64 7 40.3 12.8 4.8-7.7-14-9-4.3-0.7-11.8-2.2-15-4-32.2-4.6 16.4-2.2 23-1 25.2 3.8 67.1-3.2 18-5-16.3 0.3-70.6-6.4-22-4 26.2 8.2 61.8-5.8 11-4-3.2-1.3-13.1-0.5-18-1-36.8-3.3 10-1 18-4 6.3-0.1 14.6-0.8 17-2 36.5-1.8 6.5-9.1-10-4-22 2.7-50.1-0.6-68 6-13.2 3.8-66.3 11.7-23 3 20.9-3.8 39.3-10.3 64-11 27 2 52.4-14.3 9-6-23.9 3.6-48.3-3.5-67 5-17.8 7.2-33.9 15.9-55 19-23.4 2.2-48.3 2.1-61 15-15.6 8.6-34.2 14.8-56 18-3.9 2-12 3-17 2-36.1 3.3-10.1-0.2 6-2 22.8-2.9 43.3-7.2 57-18 15.1-10.2 35.2-14.9 59-16 24-0.9 40.2-9.5 58-17 14.8-9.6 42.7-6.6 67-7 11.5 0.6 69.6-11 28-11-25.5-0.4-43.1 6.9-69 6-6.1-1.7 39.4-3.3 51-8h19c40.3 1.2 4.9-4.1-10-4-6.2 1.1-12.1-2-18-1-27.8-4.5 22.1-1 27 0 19.3-8.6-26-14-38-18-15.8-11.3-38.7-8.5-62-5-25.2 2-39.6 5.1-68 3-42.4 6 24.4 6.5 34 7 5.8 5.3-39.3-0.9-56 0-5.2 0.9-13.5 1.7-17 2-31.4 6.6 18 5 23 2 4.9-3.4 14.6 0.4 17 0 40.3 0.1 0.4 4.9-14 2-9.3 4.9-67.1 2.7-46 8 23.2 3.8 42.9-4.9 68-4 14 1.5 77.3 2.8 25 3-32-7.6-37.2 7.8-55 4-3.5 2-13.4 1.2-18 1h-14c-32.1 0.8 7.1 3.7-4 9 26.1 0.9 44.8-5.3 68-7 11.8 3.5 6.7-4.3 13-3 4.3 1.8 8.2-0.8 12 0 31-0.3-25.7 3.1 0 5 53.1 0.4-3 1.6-21 2-24.2-3.3-41.7 6.6-65 7-4.1 2.1-12.2 3.1-17 2-37.1-1.7-11.9 8.2 6 5 19.4 2.7-40.6 3.4-50-1-20.3 0.2-41.4-4.5-47-24-12.9-28.8-18.1 30.7 3 27 17.7 8.1 34.6 16.1 56 19 19.4 6.8-33.8-2.8-40-9-16-8.2-34.3-14.7-34-41 16.2-19.9 32.6 10.3 54 5 13 9.7 72.6 0.3 22-1-35.3-3.9 27.8 0.8 32-9 16.8 2.3 57.8-12.3 40-14-31.1 10.1 19-9.5 20-20 6.3-16.8 38.2-13.4 57-14 5.8-0.6 14.1-1.4 17-2 36.7-3.7 7.3 2-8 3-38 10.3 23.6 6.8 31 0 9.5-1 78.2-1 41 0-24.3 0.5-45.5 4.2-66 8-37.5 9.1 66 0.2 9 5-23.8 5.7-44.5-5-67-2-12 5.6 32.8 5.5 49 7-8.6 6.9-44.5-5.9-60 3-0.6 3.4 43.5-0.5 60 3 14.1 1.7 64.9-9.8 43-3-45.4 10 7 4 20 12 14.1 2.9 51.8 13.9 55-2-1.1-0.6-68.5 2.5-16-2 37.3-4.3-36.4-0.9-36-5 28.4 3.3 60.9-0.2 17-7-8-1.6-67.3-12-27-11 18.4 3.1 66.7-2.5 41-13-17.3-11.4-41.8 0.6-67-3-18.9 0.1-40.3 10-64 5-26.3 4.7-44.6 15.3-11-1 21 0.3 49.6 3 64-8 24.8 4 47.5 0.9 69-2 46.8-6.5-4.5-10.1-22-4-21.7 3-49.4 1.9-64-8-21-2.7-46.9-1.7-69-5-27.5-2.3-42.1 7.9-62 13-15 4.8-61.5 7.2-18 0 21 1.5 37.7-11.2 58-14 24.2-4 46.8 2.3 69 2 27.3-1.1 37.4 13.8 63 12 26 0.8 43.3-6.8 65-10 42.4-8.6-16.2-2.8-33-4-21.3 0.5-53.4-1.1-66-3-17.5 3.3-42.4-4.6-66-4-22.6-1-48.9 6.7-60 7 17.5-7.2 43.6-6 64-11 19.5 6.5 46.8 4.1 68 7 22.8-0.4 51.4 5.4 69-3 19-3.3 62.8-7.7 13-10-16.7-4.2-56 3.5-59 0 16.4-3.5 57.9-0.5 57-8-24.6 0.8-48.3 1.9-70 5-0.7 5.5-12.7 2.6-16 3-34.8 6.1 9.4 8.1 19 8-20.5 2.2-48.7-2.1-62-5 26.2 0.8 43.8-6.5 66-9 21.1-3.9 49.5-0.4 68-7-19.4-3.8-44.9 2.4-68 1h-20c-31.6 4.4 13-4.2 22-2 27.9 2.6 43.7-6.5 70-5 51.8 2.2 7.7-8.7-12-7 12.6 1.3 60.2-20.3 25-11-15.3 4.7-43.9 14.1-52 13 20.3-5.1 37.6-12.7 54-21 35.1-17.8-7.9-3.4-19 4-18.8 6-34.4 15.4-57 18-27.2-2.8-41 8.3-63 11-21.5 3.5-49.4 0.4-69 6-24.9 0.4-53.3 13.7-10 5 11.1-1.5 65.1-6.7 47-4-20.2 4.3-45 4.4-65 9-17.6-2.5-62.7 16.9-21 8 9.4-3.1 10.4 0.1 3 1-0.1 7 26.2-6.3 34-8 23.2-1.8 45.2-4.7 67-8 7.4 1.6 13.2-1.6 18-1 28.5-1.7-19 4.6-26 4-20.7 3.7-44.6 4.6-65 9-16.5 8.5-39.5 10.4-59 15-31.6 13.8 24.5 0.7 32-3-5.1 6.1-35.2 9.9-53 14-15.1 9.3-45.8 3.5-53 22-4.4 7-15.1 64.9-10 23 10-26.6-4.1-55.6-4-9-1.3 23.8-9.4 57.3-6 9 2.9-22.1 4.3-45.5 13-62 3-2.8 3.3-11.5 5-14 4.3-35.5 6 1.3 0 11 2.3 18.3 11.8-27.8 14-39 9-9.9 18.6-57.7 9-15-6.5 18.8-12 38.1-18 57-15 36.9 8.3-0.7 10-15 5.8-19.8 15.1-35.3 17-58 2.6-14.3 31.8-46.1 10-16-11.1 13.7-9.7 40-18 57-4.1 20.3-14.1 35.2-22 53-9.2 39.2 10.4-7.8 13-18 9.6-16 15.9-34.6 20-56 3.3-2 1.9-12.5 3-15 9.8-28.5 0.5 13.3-2 19-5.4 18-12.7 58.3 1 19 4.6-5.7 18.1-59.8 14-29 0.2 12.5-23.1 48.4-11 40 9.5-15.3 16.5-33.2 28-47 14-10.4 24-25.3 36-38 11.3-13.7 29.6-20.3 44-31 9.8-14.8 25.4-24.1 32-42 14.7-38.3-3.2-3.7-10 10-10.3 14.9-26.5 23.5-40 35-5.7-1.4 24.5-18.2 31-29 18-12.1 19.9-39.2 2-7-17.1 18.5-25.5 24.9-4 1 10.8-14.5 18.8-31.3 32-43 10.7-14.2 14.7-35 29-46 8.2-8 39.8-23.5 33-26-16.7 8.4-31.6 18.4-44 31-9.2 15.5-23.5 26.1-34 40-19.1 34 2.3 7.7 11-6 22.6-27.2-3.3 13.5-11 19-12.8 12.3-15.9 34.1-32 42-8.2 4.1-43.2 38.3-18 18 30.9-20.9 3.7-0.5-8 11-12.3 12.5-25.2 24.4-35 40-4.9 8.1-36.8 42.7-17 14 15-10.6 22.2-28.2 35-40 8.3-16.8 20.6-29.4 36-39 10.8-2.8 33.4-35.9 23-31-13.7 22.7-22.3 28.8-4 2 11.5-14.1 11.8-38.6 24-52 15.3-12.2 31.3-31.9 2-10-11.1 1.4-20.5 51.3-20 31 5.3-19.3 16.5-33 29-45 27-24.3-12.3 0.9-17 11-11.4 13.4-15.8 33.9-21 53-3.1 22.3-14.6 35.7-30 45-17.4 7.6-20.8 29.1-35 40-2.4 7.9-34.2 43.7-20 23 10.5-13.9 23.2-26 32-42 9.9-15.1 24.1-25.7 37-38 13.3-6.3 15.4-42.2 12-52-2 14.6-11.3 52.3-14 45 6.1-17.6 12.4-38.7 11-61-7.8 17.2-6.5 43.3-15 59 2.3-13.6 7.3-38.5 9-60 5.5-9.1 14.9-15.7 28-33 15.8-9.5 22.2-28 39-36 22-19.9-24.2 3.6-25 14-12 12.8-25.6 26.2-38 37-16.1 35.4-0.1-13.1 10-18 10.3-14.4 16.4-33.2 32-42-7.9-7.3-23.5 19.5-31 30-19 32.3-8.5 7.1 4-9 15.7-20.1-6-19 31-25 10.3-5.2-41-0.9-44 10-8.2 16.5-17.8 31.8-22 53-3.6 20.7 0 49.1-7 67-2.2 25.9-16.5 47.4 5 18 0.2-24.8 6.4-43.5 5-70 2.3-9 21.7-52.4 10-38-1.8-10.9 28.2-42.7 19-30-7.3 17.1-15.1 34.1-21 53-8.2 16.3-4.1 47.7-8 64 0.9 25.9-12.6 37.3-26 49-8.3 16.3-18 31.4-29 45 6.2-14.2 20.1-27.7 25-46 12.9-12.6 18.9-31.6 20-56 6.5-17.6 1.3-47.7 9-65 3.4-21.3 15.6-34 21-53 3.4-3.1 7.4-8.1 9-10-19.1 12.4 14.8-25.5-9-3-3 2.8-5.4 9.4-7 12 11.1-7.7-6.1 18.2-8 27-9.1 15.5-15.6 33.9-17 58 1.9 16-7.4 71.2-4 24 4.7-16.4 1.4-47.1 9-63 8.4-16.8 16.8-33.4 21-54 11.2-13.7 21.6-28.2 42-32 3.9-1 17.2-2.7 9-5-26.8 2.6 18.1-6.2 26-4 24.2-3.6 47.2 1.9 72 0 48.6-2 8.7-6.7-15-5-23.4 3.9-46.5-1.8-72 0-22.7 2.2-41.5 8.2-50 24-15.5 10-20.5 29.8-26 49-9.3 15.7-18.8 31-17 58-5.4 9.4-0.5-40.7 7-48 13.5-10.6 9.8-39.2 23-51 10.6-14.1 23.2-26.4 42-32 20.9-4.5 49.3-2 71-2 24.7 0.4 51.3 2.2 72-2-12.7-6-47-3.4-67-3-23 1.8-48.3-4.7-68-1-18.2 6.8-36.7 13.1-46 28-19.1 23.5 6.9-20.2 19-19 14.7-10 35.7-13.9 56-18 9.3-5.3 70.8 1.3 47-8-27.7-2.2-44.9 5.4-68 7-35.3 12.3 12.3-8.8 24-9 22.1-5.6 43.9-5.2 66-2 45.3 7.4 19.5-8.4-11-5 10.7-7.3 39.6 4.2 57 5 47.2 5.8 0.1-8-17-9-18.9-10.6-41.6 0.5-64 0-23.6 1.8-42.5 7.8-61 15-11.1 1.5-49.1 30.1-23 7 17.3-7.6 36-13.7 54-20 46.2-7.1-8.1-8.8-19 1-36.8 15.9-1.5-1.3 10-10 17.9-7.5 41.4-8.9 66-9 9.7-4.1 75.1 3.6 45-7-23.8 1.5-51.4-1.3-72 3-30.7-0.1 41.5-4.3 27-12-23.9 1.4-41 9.2-59 16-16.8 8.1-31.9 17.8-47 28-14.7 9.7-23.5 25.8-36 39-9.3 14.7-12.6 36.3-20 54-7.7 16.9-12.8 36.7-19 55-6.9 18.2-2.9 47.1-8 67-8.1 42.8 0.9-12.7 1-27 0.5-24.8 3.8-46.4 7-68 2.8-22.1 13.4-36.4 16-58 5.3-20.1 9.9-40.4 17-58-10 1.4-16.1 29.2-22 45-4.8 19.8-7.9 41.5-15 59-8.2 16.9-2.9 47.1-8 67 0.8 25.5-2.1 47.5-5 69-10.9 23-20.7 35.4-5 3 7.2-17.6 5.4-44.1 9-66 3.1-21.2 1.1-48 5-69 9.8-15 11-38.7 17-58-4-20.2 19.9-43.3 12-46-14.3 9.8-16.7 32.3-20 54-2.4 15.8-8.8 51.8-13 49 6-19.3 9.6-40.5 12-63 10.9-41-5.3-15.5-6 10-1.9 3.6-0.7 13.9-3 15-3.1 23.7 0.9-24.4 3-28-0.1-25.4 18-32.1 30-45 11.5-13.3 27.3-22.4 39-36 11.5-13 26.4-22.9 39-35 15-10 27-22.9 42-33 15-9.6 28.8-20.6 42-32 13.4-11.7 30.3-19.7 46-29 16.9-7.8 35.7-13.9 50-24 20.6-8.5 49.8 4.6 63-1-14.9-7.5-43-9.1-63-7-15.9 8.8-32.5 17.1-50 25-14.9 9.4-33.1 16.1-46 28-14.3 10.5-27.2 22.5-42 32-14.5 11-28.8 21.4-42 34-13.9 10.1-27.1 21.7-41 33-10.4 14.2-26.2 23.2-38 36-12.3 12.9-27.1 22.9-39 36-13.8 10.9-15.8 33.7-17 58-0.3 5.2-1.1 13.5-2 17-3.4 36.7-2.2-2.7 0-15 3-21.3 0.6-48.6 15-59-14 6.8-20.9 27.2-20 52 0.6 24.8-6.6 47.5 2 67 6.5 22.9-12.9-29.4-6-38 6.2-19.3-2.1-47.7 4-65-13.7 11.1-10 39.8-14 60-5.3 23.2 19.7 50.3 5 46 4.2 22.9 4.9 45.1 4 69-8.8 16-12.3 37.4-22 52-4.9 20.6-20.2 30.1-26 49-2.6 22.3-15.3 34.5-26 49-9.7 41.1-0.7-14.4 8-21 2.6-3.1 4.3-10.4 5-14 3 22.2 6-16.5 12-20 3.3-21.6 17.7-32.1 16-58 11.2-2.5 12.8-38.2 11-57-8.5 4.8-6.8 65.7-9 43-5.4 5.7-9.9 55-14 40 4.4-20.5 10.6-39.1 12-62 11.4-17.5 1.4-45.8 0-57 4.7 20.3 17.1 36.7 13 59-2.6 38.6 15.9-20.9 3-30 10.1 0.1-7.5-33.6-7-51 1.3-23.5 0.1-49.6 2-73 6.5-46.6-9 9-13 10 8.4-47.8-12.1-9.8-4 13 1.2 11.1 8.1 69.4 1 45-0.3-23.1-3.3-45-5-69-8.8-35-1.1 26.5-2 38-1.8 7.2-2.3-39.3-6-54-8.3-47.6 0.3 52.8-5 11 2.3-16.3-12.3-66.2-7-21-8.8 16.6-3 47.3-8 67-1.1 26.6 3 47.4 5 69 4 23.3 4.8 46.7 0 67 4.8 24.5-6.2 42.7-17 56-8.3 15.9-16.3 32.7-24 50-1.8 4.1-2 13-4 15-4.5 35.5-2.8 2.1 1-10 6.6-32-12.2 17.8-10 31 3 19.5-10.5 46.2 4 58-2.4-11.4 0.9-68.6 1-22 5.1 20.5 1.8 48.6 12 63 13.6 34.6 14.4 11.8 2-11-6.3-8.8-9-67.1-2-23 1.4 26.6 14.9 50.8 9 9 2.6-22.2-5.1-41.7-3-69 9.1-16 10.3-39.7 19-55 12.7-26.4-6.4 23.2-9 32-6.5 18.7-7.3 46.2-6 55 5.5 22.9-4.5 50.4 5 67 9.5 42.4 2.8-16.4 1-27 5.9-17.5 0.6 33.4 7 45 10.1 7.9 1.4 71.1 2 31-3.2-17.2-12.2-14.1-23-39-27.9-34 4.5 2.9-4-14-5.7-17.9-29.2-19.2-50-24-24.8-0.6-44.6 4.4-51 23-11.9 12.8-19.7 29.9-31 43-2.2 4.3-3.9 11.6-5 15 5.3 35.3-6.5-5-1-16 3.3-21 11.3-37.8 19-55 8.7-16.1 13.4-36.3 11-63-2.9-50.3-2.7 6.5-3 22-4.8 26.9 1.9-36-3-47 1.8-19.9-5.3-42.2-13-59-16.3-31.6 9.6 9.1 10 21 8.9 17.1 10.9 40 12 63 4.7 13.2-10.6 59.6-3 46 8.1-2.8 9-69.6 9-35-10.7 40.3 7.5 22.8 8-5-6.4-17.2-3.3-45.2-10-64-14.8-34.9 7.6 45.8-3 21-0.7-23.4-9.9-39.1-19-56 10.1 6.3-5.3-62.3 1-37 4.9 21.1 0.9 49.9 16 59 11.7 13.9 13 37.4 15 59 3.3 4.1 1.1 15.3 1 18 1.6 34.5 9.3-11.3 6-22-1.7-22.3-3.8-45-17-57-14.1-0.8-10.2-56.1-9-48-2.3 21.3 6.6 54.8 15 46 8.2 4.8 10.8 36.1 12 56 5.3 24.4-1.1 47.2-14 57-8.1 17.5-18.6 31.8-27 48-5.7 24.6 15-19.9 20-26 6.4-18.4 22.8-26.9 26-49 6.3-20-2.7-42.7-3-66-5.5-20.8-1.6-44.6-2-70 3.9-45 2.8 20.4 2 34-2.6 22.8 7.1 42.4 6 66 4.6 13.4 7.6 49.3-2 63-27.7 23.4 0.4 15.8 7-6 2.8-20.8 3.9-47.1 5-67-1.8-21.3-4.4-47.5 0-69 4.3 4.4-4.8 41.1 1 58 5.3 24.1-1.7 46.3-2 69 11 31.2-22.7 25.9-33 40-9.1 2.5-31.9 48.4-12 20 11.8-12.2 19.4-29.5 41-33 17.5-0.3 66.6 11.6 29-4-5.8-7.3-1.2-44.6-5-64 8.8-16.3 8.1-41.9 8-67-3.1-9.3 3.3-72.1 2-39-4.5 25 3.2 44.3-1 69 5.3 32.3-10.2 34.3-6 65 5.1-15.2 11.9-35.8 11-60 5.1-22.4 2.9-42.1 3-70v-19c2.3-23.6 1.5 27.6 1 33 4.8 26.3-1.4 46-2 70 1 23.6-12.2 42.8-4 65 16.9 45.7-14.9-35-7 7 3.7 13.9 45.6 33 21 5-11.8-8.3-16.7-55.9-7-14 7.1 13 29.1 47 13 10-12.5-8.2-4.1-39.5-4-60 0.3-25.2 8.8-41.6 18-57 10.5-4.5 18.2-29.7 26-44 2.5-3.3 1.8-13 3-16 0.8-3.6 4.3-7.4 2-12 1.3-26.6 3.7 10.3 0 16 7 19.5 7.5-30.8 7-45 2.9-21.7 2.4-46.5-3-67-5.8-26.9-3.2-28.4-2-59 1.6-9.5 6.9-69.4-3-49-2.1 22.5-3.1 46.3-9 65 5.4 20.6 8.5 42.3 13 62 5.1 24.7-3.7 45.1-5 67-2.7 3.6 0.3 15.6-3 17-4 33.1 0-13.9 1-21-0.5-19.2 13.1-48.1 2-60 0.1 6-0.9 14.1-3 16 1.4 33.4-4.9 25.6-1 0 6.1-21.7 0.3-44.6-4-65-9.5-6.5 13.6-55.6 0-44-0.3 23.6-12.7 38.6-12 60 7.1 43 9.2 16.7 7-11 0 19.6 8.1 43.8 1 65 4.8 21.3 5.7 47.2 1 69-3.9 12.2 3.3-40.3-1-53-1.2-22.8 0.5-49.4-13-62-0.2-23.4-1.2-47.2-1-73-7.9 6.7-6.6 43.4-4 60-1.4 13.8 0.1 77.8-4 30 8.5-14-3.1-70.4-2-26-4.4 23.5 2.1 48.8-2 71-2.3 20.3 3.6 50.6 3 64 6.5 20.4-14.1 55.5-5 49 11.8-12.9 10.2-39.4 15-59 5.6-4.7-1.3 39.7-7 49-7.3 17.7-21.9 27.9-21 54-6.1 12.8 3.5 67-3 43-2.6-22.4 3.7-44.9 4-68 4.5-20.3 17.2-32.6 14-60 4.7-28.4-4.8-43.8-3-71 8-19-2-42.2 2-67-2.8-24.7 6.4-39.9 7-65-0.3-51.2-7.4 6.2-8 20-2 22.5 4-67.6-4-24-1.6 4.4-0.8 14.2-1 18-0.4 40.7-1-3.4-4-13 1.9-22.9 12.9-58.5-3-22-4.4 9.2 0.4 69.7-4 50 0.3-25.2 0-42.9-3-68-7.3 11.9-7.6 45.2-4 63 3.8 21.7 1.7 48.7 7 67 5.1 22.3 3 47.5-1 68-5.9 16.1 4.5-36.7 1-47-0.2-23.8-7.8-41-7-67 0.7-6.5-1.6-13.2-3-17 1.4-4.8 0.1-10.8-4-10 1.5 20.5-2 17-1-2 1.7-16.2 6.3-54 0-61-1.5 23.1-5.1 44.4-6 68 3.8 21.4 11.4 38.6 12 62 7 19.2 7.3 45.5 2 65 1.3 7.8-1.8 13.7-2 18-1.6 20.2-1-29.6 2-33 3.7-24.1-0.5-47.4-5-67-1.6-26.5-15.1-32.7-15-50-0.6 21.8-11.1 58.8-3 14 5.7-19.5 3.9-45.7 2-70-9.3-2.6-2 42.7-6 58-0.1 25.4-8 42.3-12 63-4.8 20-4.9 46.8-4 63-3.9-21-1.5-47 3-67 3.3-21 12.5-36.6 11-63-1-17.3 0.9-58.6-5-54-3.4 21.8 3.6 55.6-5 65-2.9 21.5-1.4 47.9-9 65-4.9 22.8 0.2 46.5 0 70-2.8-19.3-5.4-47.7-1-68 5.8-19.4 4.7-45.3 9-66 2.4-21.1-1.7-46.3-9-63-0.4 20.9 1.6 48.8-1 71 3-8.9-3.4-72.7-7-35 1.2 22.5-4 44.2-2 67-1.8 40.3-1.3-28.8-2-40v-19c0.5-28.2-9.6-16.9-10-32-4.5 21.5 2.6 44.4 5 64-0.9 26.3 4 48.8-1 71 5 3.6 5.5 64.6 2 46-0.4-24.6-6.7-41.8-2-67 0.7-12.2-0.6-76.2-5-36 2.4 6.5 0.8 75-2 35-2.1-23.7 2.4-49.1 0-67v-19c-2.1-37.4-7.3 8.5-3 18-2.3 22.6 0 49.7-12 63-3.9 20.5-1.8 47.5-6 68 7.4 1.1 9.3-35 10-54-0.4-6.6 4.4-10.9 2-17 7-29.4 4 20.8 4 28-4.9-33.5-6.2 18.5-5 36-2.1 4.1 0.1 15.3-1 18-7 34.6 3.8-31.7-4-15-5.7 10.7-2.3 74.1-6 22-4.6-24.2 4.3-45.2 0-70-2.9-25.4 7.8-44.1 5-67-4.1-6-9.1-66.3-12-34 4.3 23.1 11.7 39.3 3 61 1.7 31.1-13.3 30.4-8 60 5 20.3 5.3 44.8 8 66 11.1 34.5-14.5-9-11-25-0.5-21.8 10.6 62.7 7 11 0.2-24.1-5.8-42.9-8-67 3.5-21 8.1-41.4 12-63 4.4-18.1-6.3-39.8-5-64-1.9-3.6-1.3-13.3-3-17 2.5-7.3-3.9-5.6-4-2 0.4 28.6-1.7 0.5-1-12-2.3-28.4-8.3 32.4-4 40-3.1 21.9-4.6 45.2-6 68-7.8 45.7 9 5.1 3-19 8.3-34 1.4 28.7-1 37 0 6.3-1.5 13.8-1 18-1.9 27.7-4.7-19.1-5-27 5.6-21.9 1.5-45.2 4-65 6.3-19.3-1-45.5 7-65-5.1 11.6-18 28.7-18 52 1.9 7.5-1.3 13.4-1 18-2 35.6-2.6 12.3-1-8 1.4-45.6-6.4 15.3-7 27-1.4 25.8 0.7 45.2-9 63-5.5 21.5 4.7 43.7 5 64-6.6 19.4 0.7 46.6 9 58 6.1 20.3 13.9 37.4 17 58 2.9 23.1 6.5 44.3 12 63 3.2 22.4 6.3 44.1 6 68-8.9 45 1.2-4.9-4-24 0.2-24.1-2.8-45.9-9-66-4.2-19.2-6.9-41.4-13-61-4.8-19.2-13.2-35.7-25-49-6.6-17.9-15.7-33.7-21-54-7.5-17.4-8.7-40.5-5-65-2.7-4.4 1.2-11.1 0-16 6.3-30-8.3 8.7-6 18 4.6 24.9-8.7 57.8-2 11-1.6-26.5 8.2-41.5 14-60 4.1-22.3-2-45.7-6-66-16.6-33 1.6 19.4-5 34-0.5 7 1 14.5 1 18 7.5 33.5 2.5-35.3 5-20 7 26.9-6 42.4-10 62-2.3-2.7 11.1-34.9 3-54 1.6-20.4-0.4-47.6-12-60-15.4-14.1 11.8 24 5 41 2.7 22.2 5.4 48.5-1 68 1.9-26.9 2.6-41.7-1-68 2.2-26.8-8.3-41.1-21-54-8.6-15.6-27.1-21.9-39-36-12-11.7-26.2-22.4-38-36-13.2-11.1-26.7-22.5-41-34-12.3-11.6-27.9-20.9-41-33-14.3-10.1-29.2-20.1-44-31-12.3-11.7-32.1-16.8-46-28-19.1-5.5-31.7-17.7-53-22-19.3-3.9-60.2 6.5-46 10 17.4-4.2 51.1-6.6 63 4 15.7 9.7 34.8 15.4 50 25 17.9 7.1 30.2 19.6 45 29 12.6 13 28.5 21.9 42 32 14.4 11.7 27.4 23.6 41 34 13.6 12.1 27.8 22.8 39 36 15.9 9.4 25.4 24.7 38 36 18.4 7.5 24.9 25.8 26 49 3.7 18.3 3.3 52.6 5 61-7.1-16.3 0.7-49-7-67-4.3-33.7-13.7-31.8-6 3 2.1 5.3 4.6 11.8 4 15 3.9 38.1-0.3 1.6-5-9 0.4-23.8-7.1-41.2-22-52-17.9-24.8-0.3 13.4 2 29 4.2 21.4 10.4 40 15 59 8.2 18 10.8 40.2 13 62 3.9 23.9 0.4 50.6-1 68 2.2 33.1-8.1-27.5 1-37-2.8-21.4-2.4-46.6-8-67-2-21.8-13-35.6-17-58-2.3-21-8.9-39.3-18-56 5.1-16.3-34-45.9-12-21 0.7 10.5 22 56.8 10 34-6.4-13-13.8-47.4-23-43-1.2 6.4-13.7-28.1-29-31-6.2-3.3-33.3-41.5-28-18 11.1 15 28.9 22.1 39 36 11.5 14.2 19.8 30.8 28 47 14.1 28.2-8.2-19.1-18-21-12.6-11.4-29.3-19.6-48-27-15.9-7.7-34.6-13.8-54-21-36.7-14.3-5.6 7.1 12 9 38.5 13.8 11 5.6-18 6-9.4 8.8 39.6 8.8 46 10 19.6 6.2 35.6 15.1 50 24 7.3 5.8 40.6 41.6 17 20-10.5-13.8-25.6-23.5-42-33-13.4-10.5-38.8-9.9-62-12-19.1 0.2-54.5-5.2-66 3 27-0.5 49.4 2 72 3 27.3-1.2 44.7 6.3 58 17 32.8 17.3-10.6-5.9-24-7-39.1 1.9 23.4 8.1 27 14 21.1 5.7 43.5 24.9 10 6-18.4-5.8-34.3-14.9-60-15-7.1 2-13-1.1-18-1-3.6-0.2-13 2-13-1 27.6-0.9-1.4-3.9-13-3-20.2 4.9-40.3 9.7-62 13 23.3 6.5 42.6-4.1 63-6 51.9 5.6-22.9-1.9-19 9 25 1 46.7-5.8 68-4 24 1.7 40.2 10.4 59 15-16.5-2.8-38.3-8.4-63-9-48.7-1.8-14 10 13 5 21.4 4.8 43.7 7.4 61 15 14.8 3.4 37.4 23.4 33 28-7.9-16.2-25.9-23.1-44-31-20-5.4-44 2.4-68 1-23.6-1.3-47.1-0.5-72 0 3.2 8.7 42.6 4.7 62 5 24.8 2 48.9-3.1 72 0 21 5 35.6 15.3 46 29 15.7 9.8 15.7 34.7 25 50 8.4 10.2 18.4 42.6 11 50 3-26.8-8.5-40.3-18-57-2.8-20.6-11.6-36.7-27-47-7.3-16.7-27.7-21.2-51-23-24.9-1.7-48.4 4.2-72 0-5.2 0.9-16.4-1.3-18 1-38.6-1.2-7.2 8 10 4 14.3 0.4 68.3-3.6 45 1-22 5.1-48.2-3.5-68 4 4.8 4.3 12.9-1 17 0 27.1 1.4-22.4 4-29 4 11.1 9.7 42.2-1.7 62 0 34.9 2 28-13.1 54-8 7.3-0.2 14.8 1.3 18 1 22.9 5.3-32.1 0.5 6 8 20.3 6 28.6 22.5 40 35 4.1 21.7 14.9 35.9 22 53 6.5 20.2 6.5 43 9 63 1.2 37.6-5.3-24.5-5-36-1.3-23.1-10.5-38.8-19-56-5.6-16.9-10.7-41.1-31-41-16.9-4.9-39.1-14.8-62-8-15.5-0.4-67.1 12.5-20 8 22.8-1.8 42.5-9.8 61 0 18.2 1 54.8 19 18 13-6.5 1.6-12.4-1.6-18-1-39.5 1.5 7.1 4-5 9 28.7-0.5 25.6 20.2 37 34 21 32.6-5.6-1.8-11-14-6.5-18.1-41.1-25.2-10-5 12.1 13.3 17.9 32.4 30 44 14.9 24.5-15.6-13.7-23-18-12.5-11.3-22.7-26-38-36-28.6-5.8 35.6 32 5 15-7.4-15.5-39.5-10.8-62-10-3.4 5.1 13 2.1 14 3 35.3 1.6-18.9 0.8-24 2 4.4 10.2 42.9-0.9 59 3 19.7 9 33.3 31.1 8 5-34.9-13 5.8 11.4 13 18 12.1 13.1 29.6 20.4 34 40 14 32.4 6.7-25.9-9-25-4.7-1-26.9-33.4-13-18l38 38c9 16 5 44.9 13 61 0.8 15.4-11-28.6-12-42-12.1-31.8-1.1 26.3 1 35 12.2 35.9-7.3-13.2-6-27-9.6-15.7 0.6 36.9 4 45 11.3 13.7 26.7 23.2 38 36 7.8 17.8 23 27.4 31 43 20.3 28.4-9.3-10.6-15-18-11.3-12.7-18.1-30.7-35-40-10.4-13.1-29.4-19.1-28-46-2.7-21.5-14.3-34.7-22-53-3.6-6.1-40.6-38.7-23-15 12.1 13.3 26.9 23.4 32 42 12.2 36.3-5.4-14.6-13-20-15.4-10.3-16.9-26.8-37-35-32.2-9 12.3 16.2 16 22 10.7 15.4 27 24 30 45 12.8 19.7 9 36.2 3 23-6.1-16.2-24.5-27.8-29-41 10.2 9.2 25.7 36.2 30 32-5.4-18.6-18.5-30.3-32-42-10.1-14.5-22.9-26.5-38-38-28.3-19.5-17.8-1.1 2 9 16 9.8 25.5 25.3 33 42 8.5 17 23.5 26.8 31 43 18.7 18.6 15.6 28.6-1 2-17.5-20.5 5.8 24.8 15 25 19.5 12.6 32.3 28.7 5 5-14.8-8.5-25.2-22.9-32-42 0.8-5.5-8.6-9.6-5-4 10.3 26.9 3.9 17.2-3-1-4.4-7.2-22.4-48.4-23-28 11.5 14.1 16.4 34 18 56 3.5 5.1 8.2 10.8 2 5-6.5-26.9-14.7-9.8-3 4 13.4 12.4 27.7 23 39 36 3.3 13.9 42.9 21.3 36 23-19.8-4.4-33.9-15.1-45-29-9.3-15.4-31.6-18-40-35-7.4-16.9-9.7-39.5-26-49-22.7-25.7-18.1-1.5-1 12 18.6 6.5 14.9 35.1 27 47 24.4 25.6-12.8-3.7-12-19-10-36.4-3.6 25.8 9 24 12.8 13.5 25.7 25.4 36 39 16 9.8 29.6 21.1 45 30-10.6-5.4-29.6-16.4-42-27-16.3-8.5-21.2-28.4-39-36-15.1-9.1-19.7-29.5-32-43-11.4-12.5-25.7-23-41-33-4.1 5.5 17.5 26.3 28 33 18.5 7.5 20 30.9 35 40 13.3 12.6 26.8 26.1 36 40 15.1 10.3 31.7 18.6 47 27 15.8 10.9-25.5-10.6-32-17-16.7-6.9-25.8-22.6-38-36-15.4-8.8-25.4-23.6-38-37 6.9-6.9-36.3-35-24-19 19.2 7.7 19.8 25.1 33 38 12.1 14.2 27.4 23.7 38 37 11.5 14.4 25.1 25.6 43 31 2.3 3.8-34-6.9-37-22-10.3-13.1-21.8-26.5-37-37-12.4-11.6-24.7-24.2-36-38-10.1-14.4-29.5-19.9-48-27-11.7-7.8-57.5 5.9-43 7 20.7-7 43.7-4.6 59 5 21 4.9 28.3 22.5 41 34 12 9.3 33.2 40.6 8 13 9.1 15.9 19.7 30.1 34 40 2.4 2.8-25.7-16-31-29-9-14.3-17-31.2-33-41-26.2-20.7-20.8-4-1 9 10.1 15.5 23.4 27 33 41 11 15.1 21.3 29.7 36 39 17.2 8.5 37.1 13.5 57 18 18.4 6.9 38 12.1 50 24 14.5 11.4 35 15.7 45 30 22.9 28 15.3 0.8-3-10-11.1-13-24.5-24.5-42-33-19.7-2.9-43.8-16.9-7-3 24.3-3.7 36.2 13.3 48 24 5.7 15.9 32.3 41.8 12 9-8-16.4-22.1-27.2-38-37-15.9-8.1-24.4-24.5-45-30-11.6-7.6 30.7 9.3 32 19 7.9 4.5 45.7 35.3 30 12-14.9-9.1-27.6-21.3-44-31 3.6-2.2 41.4 29.7 13 0-9.2-11-27.5-26.7-35-32 20 6.2 28.3 22.7 40 35 11.8 13.9 23.7 26.8 36 38 6.4 7.7 22.6 50.8 21 31-1.9-12.5-19.7-45.9-13-44 7.9 18.2 11.7 39.3 21 54 2.4-7.5-7.4-36.2-11-54-2.9-25.6 8.5 28.2 12 35 4.4 21.3 14.8 35.8 22 53 16.2 38.4 2.3-4.5 2-21-5-18.4-10.1-38.2-18-56-9.8-41.3 2.3 7.6 9 16 4.3-18.4-3.1-42.4-13-56-1-4-4.3-9.7-6-13-6-19.2 9.6 17.2 14 18 8.9 13.5 18 38.4 17 50-2.4-24.9-17.1-45.9-8-5-1.9 12.6 6.5 61.5 9 42 0.5-5.2-0.5-13.2-2-16 0.6-26.5 5.5 20.6 9 23 8.9 16.2 9.7 40.3 12 62 0.2 51.6-1.6-11-10-18-5.9 1.7 0.8 12.8 0 14 6.3 34.2 0.9 4.5-5-7-1-22.7-19.7-28.9-42-32-16.8-7.5-40-9.1-60-15-29.4-12.5 22.9 7.4 33 4-16.2-6.2-40.3-14.8-57-13 1.4-13.6-60.6-10.8-37-14 24.6-3.1 38.7 16.8 56 10-8 1.7-11.6-5.2-5-1 25 7.1 31.1-0.6 7-6-5.2-0.1-12.7-1.6-16-3-24.3-9.2-15.3-9.4 4-3 10.6 1.7 57.3 23.1 33 5-16.2-8-30.3-19.3-54-15-4-1-12.3-1.8-16-3-41.3-4.6 16.5 1.7 7-4 20.7-2.6 41.4 6.7 56 14 32.6 18.5-2.8-9.1-16-12-12.4-8.2-40.9-14.1-47-20 20.1 5.6 37.7 12.9 54 21 11.5 4.2 38.6 28.4 38 18-12.2-11.7-29.3-19.5-45-30-12.8-10.6-31.5-16.8-50-24-20.9-3.1-39.8-9-58-17-11.3-12.2-25.5-22.9-34-40-10.4-13.7-22.3-26.7-34-41-13.2-19.2-32.4-22.1-10 3 16.3 8.9 24.1 26.1 35 40 0.8 3.7-18.2-24.2-27-33-14.2-9.8-26.6-22.3-45-29-38-3.3-5.7 2 9 11 26.5 15.7-23.2-7.2 14 17 16.5 9.1 29.6 20.8 42 32 22.3 26.4-10.8-9.2-19-14-11.1-12.9-34.9-13.9-50-24-3-2.8-9.5-5.3-13-7-32.7-6.2-0.3 6.1 8 9 19.5 12.8-38.9-18.8-27-4 17.9 4.3 35 21.3 48 18-34.6-14.8 14.9 0.3 22 7 16.8 9.1 25.2 25.5 36 38 0.7 7 8.5 8.2 8 12 27.4 20.2-9.7-5.4 6 13 16.1 9.9 33 17.9 51 24 11.4 2.7 1.9 3.7-4 3-25.5-1.8-8.3-10.2-31-14-26.8-0.1-22.8-21.4-34-39-4.9-5.8-38.4-41-20-13 9.3 3.2 34.5 47.1 13 23-13.6-10.3-18.4-30.3-35-39-17-13.4-45.9-13.4-12 1 18.7 7.3 27.2 23.7 36 38 23.7 19.4 20.6 22.5-1 2-11.9-12.3-24.3-24.7-37-38-10.3-13.4-41.2-7.4-54-20-27.5-21.4-18.5-1.5 2 8 17 8.7 39.9 10.6 52 23 29 23.3 4.7 5.9-12-4-11.1-12.8-41.2-7.6-54-21-3.8 6.4 3.6 5.6-5 2-1.6 6.2 17.2 18.2 19 28 10.4 17.4 21 28.2 42 31 14.2 6.7 48.8 24.6 10 10-6.3 1-11.5-2.9-16-4-23.6-8.6 35.9 11.8 8-4-22.3-9.2-38.8-5.4-22 9 15.8 5.9 17.6 41.4 29 39 25.4-0.3 48.6 1.4 72 2-2.1 1.9-43.2 0.6-61-1-25.3-9.7-48.8 0.5-9 4 10.5 1.2 76.5 3.8 37 4-17.1 0.3-55.1-6.7-59 2 26 0.4 47.9 3.4 74 2 9-0.2 62.8 5.7 46 5-22.3 3.2-41.5-8.6-67-3-25.8-4.5-43.2 2.9-66-1-37.3 0.4 23.5 8.2 30 12 19.8 8.6 44-1.6 68 1 24.2-0.9 46.1-3.9 68-7 10.1 2.2 70.5 10.4 35 7-19.8-3.6-51.6-3.2-71 0-24.6-0.2-39 10.3-61 13-24 0.3 59.7-10.1 15-11-20.5 4.5-45.1 10.6-62-2-2.5-0.8-13.6-4.8-14 0 28 8.8-17.6 1.2-22-3-32.4-4.3 19.1 12.8 29 13 16.9 6.9 44.2 9 66 5 17.3-7.7 41.4-8.5 65-10 18.5-1.9 54.2-4.2 60 1-22.7-2.8-47 1.7-71 2-26.6-2.6-41.2 7.7-63 11-25.2 1.8-45.4-2.9-66-8-3.7 11 33.4 11.8 50 15 27.6 2.6 41.2-8.6 61-13 5.1 0.2 20.9-0.6 13 1-30-1.7-15.4 11.6-32 10-19.9 6.4-45.2 4.8-68 2-29.8-0.5-37.7 18-3 18 24.6 0.3 49.8-3.6 72 0 18.9-1.8 48.5-11.5 65 0 7.9 15.1 28 25 38 30-36.7-11 3.9 15.1 22 9 6.2 7.3 66.6 10.6 35 12-45.2 1.4 19.3 9.3 28 0 14 2.2 50.8-23.8 43-6 0.6 17.7-31.3 32.1-36 25-18 7.6-42.8 7.7-69 7-38.6-1.3 40.4 0.9 27-9-22.9 6.9-42.8-1.5-64-5-20.7-4.7-44.2-3.8-68-2-32.6-2.2 31.9-2.9 42-4 22 3.8 45.9 9.7 66 2-8.8-6.3-44-2.5-64-5h-20c-4.9-2.5 54.7 0.6 20-6-39.9-1 29.2-0.4 36 3 3.4 3 15.5 1.6 16 0 39.8 0.8 7-5.5-9-5-9.3-3.7-67.9 0-48-5 17-4.2 62.6 9.4 52-2-20-3.2-45 0.4-69 0-34.3 0.8 25.9-6.6 38-5-12.4-7.5-44.3-2.4-64-5-18.7-2.6-46-7-67-2-14.4 9.7-40.3 8.7-58 16 4.8 9.1 38.2-4.4 52-7 35-12.7-11.7 9.2-25 9-54.7 7.9 25.8 1 9 6-7.7-1.9-69.7 3.3-39 6 22.3-5.8 46.9 1 66 3 25.7-1.4 39 9.1 62 8 10.3-4.3 78.6 1.6 35 1-47.8-3.4 3.4 6.3 20 5 6.8 0.7 16.7-0.1 18 1 40.5 1.1-6.3 3.1-18 2-20.1-3.7-45.8-3-68-7-15.6-7.9-42.9-5.4-64-10-8.7-4.5-69.6-3.5-45 4 20.7 4.9 47 3.4 69 5-18.7-0.8-48.8 1.9-70-1 5.7 11.1 39.2 7.7 59 10 7.6 5.3 70.2 11.3 26 8-18.3-6.5-42.9-6.6-67-8-22-5.6-60.7-2.6-17 4 12.4 3.1 74.7 5.3 23 5-31.6-0.9-46.6 13-5 5 40.6 2.5-28.4 2.2-35 7-7 7.7 38.9-2.1 53-2 41.2-9.6-2.2 11.6-17 12-5.7 9.3 33.9-6.8 53-1 21.9 3.4 41.6 8.5 68 6 18.4-4.6 47.3-8.3 55-1-36.2-1 24.6 6.9 30 11 39.7 10.7-17.1 0.9-26-5-21-5.3-37.4-9.4-63-4-23.9 4.6-42.5-4.2-67-5-25.6-1-46.8 2.6-64 10-5.3 1.1-9.6 5.8-14 6-16.2 9.5 25-1.4 27-6 6 0.4 11.2-3.5 15-3 23.6-7.3-13.9 8.9-16 12-9.7 4.5-64.4 16.4-21 11 20.4-4.1 46-8.2 66-2 21.9 3.9 46.3 4.4 70 4 27.3-1.8 46.9 5.9 69 4 19 1.3 42.9 7.3 63 7-9.5-2-62.7-17.9-27-9 20.4 4.5 40.4 9.3 66 7h20c34.8 4.3-0.8-7.2-16-4 9.5-7 42 3 53 9 20.7 5.5 26.8 24.2 27 48-9.5 3.9-1.8-41.8-22-42-13.6-9.1-42.9-9.1-64-8-3.8 2.3-13.7 1.5-18 1 3.8 6.5-14.2 3.2-31-1-21.6-3.2-43.7-5.5-67-5-18-6.1-46.8-2.2-69-5-22.7-2-50.1 0.5-70-6-23.2-3.3-39.6 9.2-60 12 25.9 1.2 48.9-0.6 72-3 21.1-5.7 49-0.1 64 6 21 4.5 47.6 2.7 70 5 5.4 0.8 13.8 1.5 16 2 27.3 4.3-21.9-0.3-28-1-22.7-1.3-48.6-0.3-68-6-17.6-7.2-45.4-5.8-66-2-6.6 5.1-67.8 6.6-40 9 26.3 2.2 48.7-2.7 72 0 25.2 1.2 52.5-1.2 72 3 20.3-0.9 60.4 1.5 58 4-22-2-45.7-3.2-72-3-22.7-0.9-45.6-2.9-70-4-46.7 0 9.1 12.8 25 8 47.4-2.1-13 4.1-25 5-21.9-1.4-45.1-5.7-67-5 19.4 6.1 40.6 9.7 65 9 5.7 2.7-69.8 3.9-28 8 27.3 2.1 45.1-4.9 64-11 20.8-8.8 44.1 4.6 66-3 24.9 0.2 49.6 0.4 69 5 20.2 5.5 46.4 4.1 67 7-16 0.8-44.5-0.6-64-5-21.3-2.5-43-5.7-70-5-20.8 6-46.9 0-68 4-15.4 9.2-38.1 11.3-64 10-13.9-1.5-72.2 8.9-27 7 22.6-2.5 50.7 0.7 71-4 17.6-7.1 43.4-6.2 65-9 22.5-0.6 50-5.7 68 1 19.5 6.7 41 10.2 62 13h19c33.5-3.6-16.1-4.5-23-6-46.3-5.7 3-2.5 21 0 28.6 3.8 34.5-5.5 62 2 23.8 1.6 23.6 26.7 39 35 13.9 12.1 45.8 5.1 45 29 2 24.6 27.3 24.1 25 51m-441-6c28.2 4.9 50.4-4.6 69-11 23.8-4.5 47.8-9.9 71-13 23.8-4 51.6-5.7 78-5 49.2-3.3-26.9-6.9-39-5-26.3 1.7-49.9 7.6-74 10-25.2 2.4-47.1 9.9-72 12-4.3 1.9-14.2 1.9-18 3-34.8 8-1.5 7.1 16 3 46.2-7.6-18.9 7.2-31 6m330-1c14.5-0.4 34.3-4.7 40-15-9.5 4.8-27.3 11.2-40 15m-272-2c17.1-1 42.9-0.3 56-8 17.3-4.9 37.1-8.8 53-13-19.7-1.7-37.5 5.6-57 8-15.2 5.8-38.7 6.1-52 13m214 0c22-0.5 39.9-10.8 58-17 21.3-4.8 37.5-14.4 56-22-21.6 0.4-35.4 14.8-57 18-19.5 6.2-37.8 13.7-57 21m503 0c20.2 2.5 42.3 6.2 62 5-13-5-38.6-6.6-55-11-19.5-2.2-40.6-5.6-60-9-16.3-3.2-43.6-4.6-63-2-21.2 3.4-41.1-1.8-64-3 16 7.9 39.1 9.3 59 9 19.5-2 46.9-3.8 63 0 20.2 3.8 37.6 10.9 58 11m-774-9c13.2 3.7 32.3-3.4 48-4 13.8-5.1 32.2-5.6 49-8 16.4-2 31.7-5.6 48-8 13.7-5.3 35.4-2.4 52-5 19.2 0.6 35.6-1.8 51-5 16.5-5.2 32.8-5 40-9 9.6 1.8 57.4 0 28 5-16.6 1.4-34.6 3.8-50 5-34.4 4.9 0.9 6.6 17 4 14.3-4.4 36.6-1 49-8 12.1-5 24.1-14.9 32-21-13.7 0.3-21.7 14.1-40 14 15-3.9 36.3-16.2 7-7-15.4 6.8-33.9 0.4-53 2-17.1 3.9-31.4-5.1-52-3-16.2 1.6-34.5 3.7-50 5-15.7 3-36.2 1.4-55 1-8.6-2.3-31.2 0.6-45 4-15.4 3.7-30.4 7.6-46 11-14.2 4.5-32 5.6-48 9 4.4 6.1 35.9-0.4 48 3 17.4-0.7 35.3-1.7 52-3 19.7 0 32.6-5.9 51-7 15.7-2.1 32.8-5.3 48-6 16.7-2.8 34.3-4.1 53-4 32-6.9 14.8 3.9-9 1-16.2 2.7-34.5 3.2-51 5-16.5 2.9-33.1 5.2-49 8-17.5 1.5-31.9 5.9-50 6-17 2.6-34.1 4.4-53 4-13.7-1.3-56.9 2.8-18 3 32.6 4.5 16 3.3-4 8m183-7c14.9 4.8 39.9 4.6 54 4 18.2 1.1 42.2-4 47-8-18.4 0.1-38.1 6.8-55 3-13.2 2.3-49.7-7.2-46 1m580 0c13.9 4.9 31.8 7.5 46 9 14.9 4.2 32.8 6.7 50 5 32.1 3.1 29.3-2.9 4-5-14.6-2.6-34.2-1-49-5-12.3-5.1-31.1-6.7-45-10-16.1-1.3-29.8-5.6-46-8-16.1-1.6-37.3-0.8-54-1-15.2 2.8-35.4 0.6-53 1-17.7 0.3-39.2 1.4-53-3-14.6-2.1-26.8-10.3-37-18-18.8-15.4-19.3 0.5-3 7 12 7.1 21.7 15.4 36 18 15.7 2.2 40.4 2.2 53 0 15.8 2.3 36.8 2.3 52 0 18.2 0.4 39.4-0.5 54 1 16.7 1.9 29.2 7.4 45 9m69 0c20.9 3.7 55 4.7 69-4-24.1-0.4-51.9-0.4-74-4-25.5 0.5-49.3-3.4-71-7-21.5-3.9-46.9-6.3-69-9-19 1-58.8-9.1-63 0 23.3 2.1 44.9 10.8 69 6 26.7 0.5 48.9 6.1 70 9 22 4.7 46.4 8.1 69 9m-185-5c18.7 2.6 40.3 0.8 56-3-17.3-1.1-40.6-0.9-56 3m-403-1c-17.3-1.7-37.4-3.6-57-3-24.6 4.4 25.4 4.5 33 5 18.2 3.9 38.9 1.3 55-1 15.9-4.1 38.1-1.6 53-6 13.6-6.8 26.6-15.9 37-24 17-15.3-17.6 4.5-23 8-11.1 8.6-25.8 13.6-46 13-19.5 0.3-30.9 8.7-52 8m-209-8c-13.6-4.5 38.5-4.4 53-6 4.8-1.3 14.5-0.7 16-3 26.5-6.3-22-2.8-29-1 10.1-4.7 36.5-10.9 54-7 25.4 0.8 53.4 1.8 72-4 11.1 0.9 82.4 0.2 42 2-25.3-0.5-49.6 2.1-71 5-22.5 2.2-44.2 7.4-68 8-20.4 4.2-48.6 2.9-69 6m752-1c23.7 2.5 43.6 8.4 69 7 16 2.9 75.8-4.1 35-7-22.4-2.6-45.3-5.5-65-12-18-1.8-63-13.4-20-5 4.8 2.4 14.7 1.6 18 1 18.4-0.8-25.5-4.9-31-9-20.5-3.1-45.6-5-68-7-20.3-3.1-50.2-3.9-72-2-25.7 6.5-44.1-4.7-70-2-17.3 3.6-59.3-16.2-52 2 19.7 6.8 41.5 12 67 9 25.9 0.9 47.7-4.2 69-6 26.3 0.1 44.5 8.9 71 5 4.7 2.4 14.5 1.6 18 1 3 3.4 10.3 1.3 14 2 23.6-0.2-6 7 20 7 1.3 5.5 12.3 3.5 14 5 8.6 5.5-37.2-5.7-32 2 21.4 4 47.1 5.2 68 7 51.2 4.5 0.3 6.4-17 0-23.7-0.8-45.8-4.3-69-7-21.8-3.3-46.5-5.5-70-7-8.7-1.1-77.2-1.7-42-4 26.5-0.2 50.9 2.3 72 4 17.4-1.5 67.5 4 59-2-23.2-1.6-50-1.7-72-4-20.7-2.3-48.6-5.9-71-3-20.2 4-47.4 0.6-71 3-13.7 2.2-60.4-21.2-33-3 14 12.3 29.4 24 57 20 14.3 0.5-2.1 2.1-6 1-17.3 7 24.4-1.5 33 1 51.3-0.4-15-5.4-25-8-36.9-0.6-42.5-3.2-4-6 26.3 4.7 45.7 2.3 67 4 24.9 1.2 49.6 3.4 71 5 24.5 1.4 46.8 6.1 68 8m-805-7c13.6 0.3 32.4-2.1 48-4 18 1.3 30.7-5.5 46-6 14.4-3.6 29.8-6.2 48-6 13.9-3.5 37.8 0.8 50-3 19-3.4 26.2-3.5 46-3 19.4-0.7 34.2 4 49 4 17.5-1.1 38.7 3.4 49-1 11.5-4.4 33.7-4.9 37-13-5.2-7.1-29.4 1.6-41 3-17.3-0.2-34.6-2.5-48 2-15.3 4.1-33.5 0.1-50-1-15.6-1-35.5-2-49 1-14.2 3.8-31.1 4.9-49 5-14.5 2.9-31.6 5.3-45 8-12.2 4.9-35.1 1.5-47 5-15 2.9-34.1 3.3-44 9m4-10c21.5 0.3 44.9-5.7 67-6 24 4.3 44.2-4.7 64-8 27.6 2.1 45.4-7 70-7 22.5-0.2 50.4 5.8 66 0-17.6-6-50.2-0.3-69-6-23 1.8-39.2 10.5-68 6-27.7-1.9-48.1 4.6-68 8-19.3 5.9-44.6 5.6-62 13m287-12c-22.6-3.2 24-1.5 29-2 17.8 1.1 27.7-5.3 43-7 13.8 0.5-23.2 5.6-27 8-13.8 4.7-30.2-2.4-45 1m311 0c-7.8 2-15-0.7-21-1-1.9-2.1-10.3-1.9-13-4-27.7-5 2.4-2.4 12 2 5.2 2.2 16.2 1 21 1h16c34.8 1.1-5.6 1.5-15 2m188-1c13.8 3.3 30 5.8 42 8 13.8 3.2 33.4-0.1 46 2 10.2 1.1 41.8 9.2 35 0-13-2-25.6-5.7-41-7-14.5-1.6-30.2-4.7-44-7-12-3-27.7-3.6-45-4-10.8 1.7-44.9-1.7-38 4 12.3 4.7 34.1-0.8 45 4m-755-1c30.5 3.5 48.7-6.8 72-9 26.7-0.2 57.3 1.7 74-7-28.2-1.2-51.3 4.3-78 3-22.9 4.1-46 9.6-68 13m607-4c17.8 0.6 42.7-0.9 60-3 24.6 4.4 42-5.9 59-3 21.5 1 43.6 2.5 62 3 16.3 4.2 40.8 10.2 55 6-17.1-3.9-37.7-7-55-11-20.1-0.5-41.4-2.9-62-4-20.8 1.1-40 5.5-61 4-18.7 3.7-47.7-1.5-58 8m-647-1c21.3 3 43.4 0 62-3 21-0.3 36.2-8.8 58-8 21.3-0.1 42.7-1 65-1 21.2-2.3 46.1 7.8 58 0-21-0.2-37.1-6.5-62-5-22-0.5-43.7 1.5-63 3-21.4 0.1-39.1 4.8-59 7-18.3 3.6-42.9 2.7-59 7m612-4c22.5 4.8 42.4-1.7 59-4 16-5.5 43.6 0.6 61-4 21.1 1.2 46.8-0.8 64 1 23.6-1 38.8 5.2 58 7 20 3.1 43.1-0.3 61-1 38.8-4.1-15.9-5.9-27-7-19.1-0.9-40.8-0.7-61-2-22 0.7-39.4-3.3-62-3-20.8-0.1-46.9 0.2-62 1 7.3-6.5-30.8 3.6-46 0-23.1-1-42.7 3-60 5-10.5-0.7 7.5-0.2 6-2 30.6-3.9-8.8-4.9-15-1-17.4-8.2-58.1 8.3-33 2 4.4 2.2 12.9 2 16 1 18.6 0.4-8.2 9.5 23 7 19.6-2 33.6-9.4 58-7 16.6 3.3-32.7 2.3-40 7m-309-4h-19c-22-5.2 29.8 0.9 34-5 15.5 4.6 56.8 1.7 61 2-18.2-4.4-49.1-3.1-68-5-13.5 5.4-74.6-2.6-28 0 21.7-7.5 46.7-0.6 68 0 47.8-4.6-20.4-1.1-27-9-19.9 1.3-47.7 0.7-69-2-19.8-4.9-49.2-0.3-70-5-46.3-5.6 16.9 0.9 30 0 26.4-0.5 39.1 0.8 64 5 24.8 1.3 46.8-6.2 71-2 11-0.3 12 2.8 2 2-36.1-2.8-9.7 5.8 9 2 34.2 14.6-4.4-18.3-24-10-21.8-6.9-40.1 9.1-66 1-21.2-2.3-41-7.3-61-13-19.1-3.6-50.6-2.6-69 2-25.2-0.7-47.6 3.8-68 7-20.6 4.4-44.2 5.6-65 9-25.8 9.4 37.5 2.3 45 0 21.8-2.4 42.6-6.4 68-6 7.2 1.2 14.7-0.3 18-1 24.1 2.5-24.4 2.9-32 4h-20c-33.5 6.1 5.6 4.4 18 3 50.6 1.3-14.5 2.9-27 4-22 2.7-42.1 7.5-65 9-29.9 8.9 35.5 2.5 42 0 22.2-2.7 42.7-7 66-9h19c26.1 4.2-24.5 4-29 5-46.3 7.4 9.8 6.1 25 3 22-1.9 51.7-3.7 72-1 21.4 4.3 43.3 7.3 62 13 21.6 6.3 46.3-0.8 71 1 38.3-4.1-26-6.6-38-4m247-10c1.3-11.2 85-4.9 22-9 21.7-5.3 47.2-1.5 68 0 8.7 1.2 15.2-2.2 21-2 3.1-1.6 12.3-0.6 13-3 28.8-7.7-6 5.3 22 1 15.6 0.8 74.7-5.6 59-1-24.4 3.7-55.1 1.4-80 5-23.6 3.5-56.7 2.1-77 4-4 2.7-14.5 2-18 3-38.8-4.9-5.3 10.8 13 3 25.6-6.2 50.4 3.9 78 0 24.7-3.7 55-1.7 82-3 28.1 1.4 54.8 4.2 80 4 15.1 1 82.9-1.1 49-6-27.6 0.1-54.3 2.8-82 1-4.8-1.4-17.1 1-18-4-13.8-1.1-62.5-0.4-25-2 20.8 0.9 64.4 5.5 70 1-4.6-1.8-15.7-0.6-21-1-29.2-6.2 28.8 2.6 28-3-12.8-2.2-82.3-6.6-29-5 26.1 2.9 50 7.3 74 10 14.4 5.3 77 13.5 31 2-21.1-6.5-45-10.9-70-15-22.5-4.5-49.6-6.9-72-11-30.6-2.1-53.4 3.5-76 9-18.4 7.2-52.8 8.4-71 8 24.5-3.8 55.9-1.8 73-11 20.5-6 48.6-11.5 74-7 23.8 4.5 54.4 2.2 74 10 24.2 4.5 50.8 7.4 75 9 58.2-1.7-16.2-5.4-27-8-23-4.1-46.2-10.4-68-15-26.8 0.6-51.7-1-80-3-34.6 6.9-36.6 0.4-61 10-16.8 8.7-52.8 8.2-68 11-21.4 1.9-55.5-0.4-63 18m142-4c-46.3-0.2 17.4-5.2 24-3 48.5 1.8-14.5 2-24 3m-441-1c8.2 1.7 50.1 1 19 2-15.9 1.4-28.7-1.2-44-2-12.1 0.2-47.1 0.4-19-3 15.8 0.5 29.8 1.9 44 3m286-24c-6-19.9 34-39-11-30-2.1 4.5-7.9 5.6-13 7-33.7 0.5 8.6 25.9-19 21-24.3 3.6-53.6 1.3-74-3-31.1-0.4 62.2-7.1 12-13-15.4-4.7-44.7-18.6-49-16 9.9-19.1 0.2-49.1 16-61 1.2-0.7-2.6 9.7 1 12 11.2 31.4 4.2-15.2 10-22 10.9-30.4 15-31.3 8 3 9.2-17.2 6-48.2 31-48 24.8-3.6 51.5 2.1 52 23 1.3 6.9 5.3 9.9 4 17 16.7 21.3-6.5-39.8 8-9 2.2 5.3 5.5 8.9 6 14 0.9 5.5 4.4 7.2 3 13 0.7 21.4 3.9 21.9 5 22 5.8 41.7 18 21 5-7-11-38.3 18.9 6.3 9 26-3 35.4 33.5 16.7 38 15-18.2 8.4-42.3 10-42 36m8-1c-0.9-18.9 19.5-23.6 43-22 15 1.8 57.8-0.5 51 0-18.2 4.4-42.8 2.1-59 8 5.9-8-38.7-3.2-35 14m-175-6c-11.9-5.2-25.7-9.5-42-12-10.5-1.1-44.2-0.4-39-5 16.5 2.7 36 1.1 53 1 11.1 5.3 10.2 9.2 28 16m-49-3c-29 0.4-54-4.5-78-11-52.7-10.8 19.7-1.2 27 1-19.2 2.7 43.1 12.3 55 6 7.3 1.8 13.6 3.3 21 3 36.5 10.6-12.2-1.4-25 1m304 0c-38.4 0.4 21.5-3.9 29-6 4.9 1.3 15.4-3 9-4-16.7-3.2 26.6-2.1 29-7 43.6-4.1 12 5.2-11 6-16.7 5-36.7 9.6-56 11m85-1c13 2.5 26.5-3 42-1 17.9-3.2 28.7 4.8 43 1 15.4-4.3 26.6 3.2 39 4 11.8 4 25.5 7.4 38 7 12.9 3.6 27.3 4.6 41 6 8.3 2.2 45.5 2.4 23-4-14.5-0.4-27.7-2.6-41-5-13.8-0.7-29.5-2.2-43-3 13.9-1.9 31.1-0.2 45-1 29.1-0.3-3.3-7.3-15-5-21.5 3.7-26.2-1-1-2 27.3 0.2 9.9-7.6-5-4-14.1 2.2-25.9 5.8-43 4-14.5 1-24.5-6.1-40-5h-46c-12.4 2.5-29.6 2.4-37 8m-337-22c-1-3.9 8.8-26.8 0-37-6.4-11.6-2.2-30.5-1-45 4.1-4.3-1.5 31.9 2 40 5.5 12.2 6 31.6-1 42m-80-4c-16.8 0.8-37.3-2.9-53-9-30.1-4.7-16 8.4-43-1-17.6-2.8-39.6-3.7-57-7-43.2-2.9 5.9-0.5 18-3 8.1-3.9 65.4-2.4 31 0-4.9-0.1-13.4-0.4-15 1-31.4-0.3-5.3 5.2 10 2 20.3 1.7 42 2.9 58 6 14.7 6.3 33.5 10.3 51 11m269 0c-21.3-2.7-9.8-22.5-8-38-0.4-28.6 9.5-33.1 3-3-1 11.6-15.1 45.3 10 36 11.3-9.6 38-0.5 48-6 16.5 2.2 37.2-1.1 51-6-8.6 7.5-27.5 11.6-46 8-12.1 5.3 35.4 8.2-11 5-8.9-4.4-37.9-2.1-47 4m-259-2c-18 0.6-27.6-10.2-42-13 3.2-5.7 25.8 8.8 37 4 20.7-4.1 40.8-3.9 11 1-41.7 4.3 10.3 5.5-6 8m63 0c-11.7-6.6-38-1.5-51-7 19-0.3 40.2 0.4 50 4 6.6-16.1-10.9-34.3-5-42 1.3 16.2 13.9 28.5 6 45m22-7c7-2.9 14.3-20.1 12-31-7.5-1.4-7.2 24.6-12 31m401-1c-41.7 0.1 25.5-3.7 31-7 12.2 5.6 47.7-3.1 62 6 40.9 11-12.4-1.4-28 1-13.3-2.6-44.1-0.1-65 0m-681-1c-18.8 0.1-38.1-1.8-54-4-8.7-1.9 36.2-2.3 40 2 17.3-4.7 34.2 2 51 2 14.2 3.9-32.1-0.8-37 0m-4-6c-16.8-4.2-44.9-4.1-62-6 22.4-3 47 1.9 62 6m466-1c-7-12.5 28.8-9.1 46-8 25.6 1.8 49.7-0.2 68-5 1.7 2.9-34.7 9-54 8-18.4 9-47.3-10-60 5m-211-1c-13.3-11.7-39.3 2.5-54-3 17.3 2 44.1-13.4 54 3m378 0c-21.1-7.2 38.7-10.3 50-5 16.1 4 74.8-12 45-3-21.5 8.3-51.5 2.7-75 1-4.1 2.9-13.8 0.1-16 4h15c29.5 2.8-15.8 1.2-19 3m-597-4c-24.5 2.9-41-5.1-63-5h-17c-32.6 1 13.1-5.5 18-1 22.1-0.2 42.4 8.5 62 3 6.8 1.9 12.7-0.4 16-1 34.7 0.5-9 3.2-16 4m163 0c-15.7 3.7-84.8-10.4-42-5 13.9 8.5 88.9-5 42 5m-1-8c-16.2 0.9-35.3 1.3-46-4-9.2-1.8-36-5.7-34-9 15.1 3.2 35.2 1.8 49 2 15.6-1.3 26.9-6.2 38-12 14.1-1.8 23.6-11.1 33-17 9.4-6.4 15.9-16.2 21-28 4.3 6.9-8.4 23.8-16 27-10.2 6-17.5 15-29 19 5.8 10 20-9.8 28-11 7.6-4.8 26.5-25.6 11-8-8.7 7.5-19.8 15.2-28 22-9.6 6.5-27.7 4.7-41 8-1.3 7.9-49.4 0.1-27 7 13.3 4.7 30.9 3.6 45 2 12.8 0.1 34.6-8.5 40-3-16.3 0.3-28.6 4.3-44 5m352 0c-15.3 0.4-35.5 1.7-48-1-27.9-0.7-21-6 1-3 14 2 33.8 5.5 46 2 24.9-0.1 24.1-8.1-2-5-14.6 2.7-31.7-1.7-45-3-20.7-5.4-19-12.7-2-3 6.8 3.6 44.3 7.7 34 2-13-3-29.4-2.9-40-9 16.9 5.3 4.5-5.7-7-13-10.7-4.6-20.9-13.2-24-26-8.1-26.4 4.9-1.6 6 8 6.8 11.4 17.3 11.4 26 20 10 7.9 26.5 10.2 35 16 13.8 3.3 29.3 6.6 45 5 15.7-0.7 43.7-3.7 15 1-12.9 3.4-25.3 7.3-40 9m-527-6c-28.2 1.2-21.8-1.2-1-3 8.5-6.8 29.2-4.1 41-6 13.8 2.7 31.1 3.3 41 6 11.2 5.9 23.7 11.3 34 14 1.3 4.1-21.6-6.4-29-9-8.2-5.7-26.5-5.4-38-9-12.4-2.1-47.1 4.4-18 4 18 3.6-26 0.7-30 3m693 0c-15.9 0.6-30.6-0.9-43-5-6.5-4.6-47.5 3-29-3 15.4-2.2 30.6 1.2 45 1 3.8 9.7 41.4 1.5 27 7m-398-1c9.6 0.5-5.6-19.1-7-27-7.1 0.1 0.1 23.7 7 27m-443-2c23.2 3.2 48.6 2 63-6-17 2.2-43.5 2.3-63 6m521 0c10.6 0.9 15.7-12 17-24-7 2.8-9 18.9-17 24m331 0c0.4-1.8-9.5-2.5-15-2-13.2-1.4 26.5-3.1 34-5 43.8-8-9.3 4.6-19 7m-714-2c-22.8 1.6-41.6-3.3-59-7 21.3 1.5 40.8 5.6 59 7m341-3c8.4-15.8-2.5-38.6 7-56 7.8-22.1 19.4 36.6 22 19 4-18.2-25.8-43.8-28-13-10.3 30.7-2 21.6-1 50m-198-1c-5 0-20.4 1.2-18-1 20.8-0.3 40.2-3.6 54-9 20.4-7.6 43.2-14.2 47-36 0.7-4.9 2.2-20 3-15 3.1 24.6-8.2 36.1-22 42-18.7 8.7-39.1 17.7-64 19m439-1c-6.2-1-9.9 1.3-16 1-35.7-0.7 11.1-0.4 15-4-13.6-3.4-41.1-0.9-55-9-15.5-6.1-37.6-6.2-46-21 4.1 5.3 26.6 14.7 42 17 17.6 6 37.1 11 59 9 22.4 5.6 37.9-5.6 59-5 4.3-1.2 12.7-1 16-1 31.8-3-8.1 3.5-17 2-20.6 2-35.6 9.3-57 11m-564-3c0.6 0.3-17.3-5.6 0-5 17.4-0.4 31.5 1.8 45 4 23.8 3.6 19.7 7.8-1 1-13.5-1.4-30.6-4.1-44 0m90 0c-4.9 4.2-13.5-1.4-19 0-14.4-4.6 32.4-3.3 45-4 25.3-2.5 44.3-11.9 65-19 36.9-25.1-0.4 12.1-19 10-17.8 10.7-46 10.7-72 13m-103-1c-20.8-2.8-51.4 1.7-64-9 18.3 6.5 47.6 3.4 64 9m725-2c-33.7 0.4-19.5-2.2 4-3 29.3-8.4 17.8 1.4-4 3m-582-9c-16.2 1-32.6 1.2-48-1-12.7 1.6-47.4-0.5-14-1 17.9-0.7 32.1 1.3 48 1 12.9-1.1 43.3-3.3 14 1m429 0h-22c-36-4-13.7-0.4 8-2 29.3 1.6 53.8-1.4 81-1 5.9-1.6 14.5-2.9 19-3 42.6 0.4 15.6 1.7-7 3-25.5 1.8-52.3 2.4-79 3m-231-5c6.4 2.4 6.8-19.7 6-32-3.9 1-5.3 21.2-6 32m253-1c-4.3-3.8 31.1-2 43-4 10.5-1 52-6.8 14-6-34.8 4.4-9.6-3.9 11-2 15.9 2.6 38.2 6.9 48-3 3.9-5.9 45-10.3 32-7-18.5 0.5-27.4 10.5-42 14-14.8 4.7-36.4 2.1-53 4-14.3 4.8-36.1 1.9-53 4m-280-4c10-3.5 11.6-25.4 19-33 2.5 0.3-13 31.7-6 31 1.9-8.4 18.7-35.5 6-34-11.1 7.2-15.1 23.6-19 36m110-23c-1-22.6 0.7-50.4 6-68 8.9-16 2.8-49.1 12-63-2.2 18.3-3.4 46.6-11 62-1.8 23.1-5.3 46.6-7 69m-156-1c-0.1-17.1 10.2-31 7-54 1.6-15.1 0.5-43.9 2-50-3.1-18.3-6.8-36.1-12-53-7.3-13.4-21.9-20.3-28-36 4.6 3.4 16.8 22.5 27 29 8.6 13.8 9.9 34 13 52 2.8 21 1 33.7 1 58 0.1 21.4-3.9 38.9-10 54m443-4c-4.9-1.9-13.8-0.7-22-1h-16c-28-1.6 16.7-1.5 24-2h23c37.8-8.5 13.8 3.7-9 3m-716-8c-8 0.2-54 1.7-35-1 35.4-2.5-11.4-6.5-19-1-8.9-2.2 24.3-6.2 37-4 12.9 1.9 50.3 2.9 17 6m723 0c-15 0.1-32.6 2.3-43-4 9.3-5.3 32.7 0.9 41-4 25.5-1.9 22 1.7 0 3-15.9 4.6 36.9 2.5 2 5m-553-2c-20.4 0.8-37-2.3-52-8-13.2-5-26.3-13-36-22-21-13.5-8.1-17.5 11-9 14.7 4.9 45.5-4.7 46 12-1.5 15.4 23.6 31.4 27 9-1.4-23.7 31.7-9 36-4 19 4 43 0 13 9-12.4 6.7-29 11.4-45 13m376 0c-20.2 0.5-37.4-2.9-54-8-10.7 0.1-44.9-19.4-15-12 15.7 0.9 25.8-15.4 46-10-3.5 20.6 22.9 33.4 26 12-1.8-21.3 22.3-22.1 40-20 13.4 3.3 44.4-15.3 36-6-10.5 10-18.4 22.7-34 28-10.6 9.2-28.3 13.4-45 16m-244-4c15-9.3 30.6-25.4 27-54-2.8 20.6-15.3 39.8-27 54m-425-4c20.5 13.1 48.4-1.1 66-5 4.2-1.8 15.5-1.8 18 0 33.5-3.9-18.5-10.2-25-4-9.9 3.9-80.8-3-36 5-6.6 0.3-14.3 1.1-20-1-2.8 3.5 5.3 4.8 9 4 30.6 4.2-8.3 1.6-12 1m761-5c24.7 1.7 56.6 2.7 76-3-24.9-1.4-55.4-0.9-76 3m-659-3c22.3 5.6 53 4.8 78 3-22.5-3.9-51.8-4.4-78-3m368 0c-7-2.9-7.9-23.2-8-37 6.2 6 3.9 29.6 8 37m-458-4c31.3 9.3 54.2-4.6 80 0 28.1 5.5 59.6-2 85 2 16.8-14.7-56.8 0.6-50-6 9.1 1.9 13.4-1.5 22-1 36.3 2 25-9.9-4-5-25.9 8.9-57.4-5.7-80 5-4.9 2.8-12.4 3.1-19 4 2.1-0.7 31.1-9.1 45-10 8.3-0.1 13.3 2.6 22 1 38.6-6.5-18.6-4.6-29-6-21 7.7-48.7 11.1-72 16m466 0c-9.8-3.4-1.9-41.6-8-34-3.6-12.2 0.8-49.3 3-43 5.6 11.7 9.6-24.4 7-37 0.4-19.5-1.3-37.4 0-55 1.4-40.1 3.4-8.7 2 10-1.6 19.6 4.1 39.4 0 55 2.8 22.3-5.8 34.9-8 50 2.1 18.1 2.6 38.8 4 54m51-7c-7.2-9.2 0.8-53.3-6-51-1.6 42.8-5.9 15.4-1-7 2.5-19.7 6.8-37.7 14-53 6-15.4 12.6-32.6 23-42 7.7-19.2 19.8-35.7 5-6-7.4 14.8-20.1 25.7-24 42-6 16.3-9.5 35.1-13 54 2.9 19-0.5 46 2 63m-346-12c-15.8-10.9-42.3-4.2-64-9 21.6 0.5 54.7-3.1 64 9m215 0c-2.5-11.9-1-28.8-4-42 2.2-16.9-2.9-27.2-9-38-5.8-8.2-7.8-21.6-14-32-5.6-17.4 9.2 11.9 9 16 1.2 15.2 16.1 25.6 8 2-8-21.8 4.9 4.4 4 14 6.4 13 7.7 21.7 6 35v45m153 0c-1-19.1 4.6-38.6 9-55 0.3 17.8-7.8 34.8-9 55m-8-8c-4.7-20.2 0.7-48.3 7-67 11.3-14.7 13.4-39.2 26-54-5 9.8-13.5 38.5-22 52-11.2 15.5-6 47.3-11 69m182-19c-33.1 3.4 22.4-8.3 33-3 34.8 9.4-21.4-1.6-33 3m-372-3c-6.2-14.7-11.5-31.6-18-48-4.3-16.9-4.7-40.2-14-52 11.8 11.4 11.4 34.2 17 50 5.3 17.3 13 33.3 15 50m102-7c-0.9-26-5.7-55.9-3-81v-22c1.4-4.7-1.5-15.5 1-10-1.9 29.3 9.6 4.4 6-11-1.9-1.6-1.9-20.7 0-14 4.4 20.9-0.1 42.3-4 58-4.1 26.7 2.2 56.1 0 80m160-2c14.1-11.6 32.1-26.8 52-34 15.5-14.2 37.3-23.5 58-31 22.8-12 49.9-4.2 52-16-7.9 5.3-9.2 1.8-1 0 17.7-3.8 27-18.2 35-30 12.6-17.3 25.8-35.1 40-49l11-12c30.4-17.2-2.8-8.1-13 1-13.6 15.9-25.8 34.9-38 51-8 7.1-43.4 39.2-35 27 17.6-12.5 32.3-29 45-44-5.5 0.9-26.3 27.4-40 36-32.8 29.4 7.8-8.7 16-17 14.1-14.6 28-29.9 41-46 9.5-20.1 35.5-25.2 54-35 25.2 4.9 48.4 1.2 74 5 18.9-10.8 18.8-42 31-58 4.2-24.8 12.6-45.5 22-65 10.8-19.1 14.9-46.1 17-72 2.2-27.4 6.7-54 10-79 0.8-28.9-1.5-57.7-8-81-2-3.2-2.9-12.2-5-16-4.7-38.2-9.3 18.4-2 24 5.1 24.1 9.8 54.1 7 79-4.4 24.3-5.4 54.4-10 78-0.4 29-7.5 53-17 72-8.8 19.9-13.7 44.2-21 66-10 16.5-21.5 44.9-48 36-1.8-3.5-22.2-0.8-10 2 4.9 1.1 10.2 3.9 13 4 26.7 7.2 2.4 4.6-11 0-24.9 1.8-53.5-1.4-70 13-22.9 6.5-29.2 29.3-47 41-12.3 16.9-33.3 27.1-45 44-6.3 22.3-30.2 27.5-51 36-21.2 8.2-40.7 19.8-57 32-21.8 6.9-36 21.8-49 38m31-2c10.7-1.7 25.6-8.8 36-12 12.8-3.5 26.9-5.6 40-9 16.3-0.1 30.6-4.5 45-5 17.5 1.2 33.2 0.6 45-4 12-4.4 26.9-8.2 41-9 17.8 1.5 27.2-5.4 40-9 11.9-4.3 24.7-7.7 35-14 15.1-10.9-15 3.4-22 4-13.5 7.2-26.1 8.8-30 8-2.1 8.2-25.2 5.3-38 7-14.8 2.3-25.5 10.4-39 12-15.8 2.6 18.2-5.3 22-9 10.3-6.4 31.1-4.4 41-9 13.4-3.2 25.1-7.8 36-13 11.4-5.1 21.1-11.6 34-15 11.7-2.7 34.9-12.1 5-8-13.5 3.2-25.5 10-36 14-11.7 4.9-22.9 9.9-34 16-11.9 6-37.6 6.2-10 1 13.1-3.4 21.8-11.1 32-17 8.1-7.4 27.1-10.3 30-18-14.8 1.8-23.4 9.4-35 14-9.1 7.3-19.2 13.5-32 17-12.1 4.2-24.1 8.5-35 14-11.8 4.6-23.7 11.5-40 10-25.4 7.7-4.8 0.5-30 0-15.6 1.8-30.3 5.9-44 7-20.7 3.8-20.8 11 1 4 14.1-2.9 31.4-4.3 44-7 16 2.2-20.9 4.8-28 5-13.4 3.7-27.8 5.7-40 9-13.4 3.6-25.3 7.9-34 16m-15-1c12.6-10.6 33.7-20.5 49-30 4.8-6.5 64.4-21.2 31-10-19.6 7.1-36.9 16.4-54 25-16.8 17.5 26.8-9.6 36-12 18.8 3.2 40.6-10.4 61-13 24.6-13.5 27.1-2.8 47-18-37.3 15.5 11.8-7.5 19-14l10-11c-8.8 20.6 14.3-10.5 17-16 18.6-14.6 25.5-42.5 2-12-13 13.2-19.3 33.4-39 40 1-1.7 25.2-21.2 30-36 12.3-14.8 23.9-29.8 44-36 20.6-2.9 38.2-20.6 50-22-13.1 9.8-38.1 20.2-45 27 22.2-4.7 38.1-15.4 52-28-18.4-7.3-34.3 15.6-54 18-22.8 4.2-33.5 22.1-48 33-12.5 14.1-25.1 28-42 37-7 13.9-38.1 26.5-44 24 19.7-7.3 38.2-15.3 49-31 15.9-10.8 24.3-29 36-44 10.5-13 27.2-30.7 37-37 14.2-8.8 37.1-24.9 58-12 41.6 4.8-17.2-14.9-27-9-27.5 13.9-27.3 15-41 19-13.1 14-24.8 28.9-37 43-10 16.9-21.9 31.5-36 44-14.8 11.8-33.9 19.2-53 27-5.1 1.5-8.9 4.5-16 5-31.8 9.1 0.8-2.7 12-7 37.1-6.9 26.5-17.4-5-5-19.8 7.1-40.7 12.7-53 27-16.9 9.7-35.5 17.7-46 34m254-2c-22.2 2-52.1-1-12-1 18.8-5.1 47.5-3.3 12 1m-640-2c-5.5-3.8-40.1-10.9-63-11 12.9-1.5 51.4 1.7 63 11m370-3c9.8-3.1 16.4-16.8 24-26 8.1-7.6 17.3-17.1 27-23 8.4-7.4 22.1-12.5 30-19 11.5-2.9-16.5 11.2-20 14-21.2 15.4 1.6 3.9 9-2 11.8-5 22.9-12.7 32-18 8.3-8.7 22.2-13.5 30-21 8-8.1 18.1-16.7 24-26 8.4-7.9 21.5-13.5 22-28 10-23.1 0.2-16.9-4 0-3.6 12.9-14.7 20.6-23 27-11.9 4.8-16.5 18.9-26 24-3.7 6.1-27.8 20.9-22 16 10.4-6.6 19.7-16.1 27-23 5.7-11.4 18.1-17.8 26-25 11.5-4.7 18.6-16.4 21-29 3.6-13.4 9.8-24.3 19-32 4.8-4 28.3-26.4 10-17-6.3 9.9-20.1 14.9-26 24-4.6 11.8-6.7 28.4-14 36-7 9.5-16.9 18.4-27 23-11.1 5.6-16.5 19-24 26-7.9 8.9-19.5 16.1-30 21-24.9 10.8-3.1-1.7 7-5 22.9-13.2 0.2-6.8-11-2-10.4 6-20.8 14.4-30 20-9 7.5-19.3 16-27 23-5.4 13.4 15.9-10.2 21-11 9.7-6.8 22.4-12.9 31-19-5.1 6.7-20.9 12.9-28 19-9.1 7.8-20.9 14.8-27 24-6.8 9.3-14 20.8-21 29m-79-6c1.1-17 3.9-39.2 11-53 7.7-14.9 24.1-20.8 29-39-3.5 18.3-16.5 31.7-26 39-6.6 15.8-9.6 35.1-14 53m-66-9c-2.2-15-11.9-34-5-52 1.3-20 2.1-38.3 0-58 4.4 11.6 3.3 40.5 1 56-3 20.4 2.4 37.7 4 54m104-2c2.1-15.3 9.5-34.2 14-48 8.7-13.1 18-21.1 22-40 6.8-13 18.2-28.7 22-38-3.7 18-16 27.2-22 43-4.2 17.1-14.6 30.4-18 47-0.7 11.7-11.6 57.1-6 20-1.1-10.6 17.2-51 4-32-6.2 15.1-10.2 32.6-16 48m-97-6c-2.7-16.2-8.3-32.4-6-51 4.4-18 0.5-38.1 0-57 4.5 15.5 3.8 39.4 3 54-4.7 19.9 4.1 35.2 3 54m-310-1c-18.9 0.1-33.3-6.8-44-14 8.6 2.1 23.8 14.1 41 11 18.7-5 38 6.6 50-2-5.8 10.1-32.7 0.3-47 5m483-2c20.1-4.3 35.3-21.7 54-29 18.8-9.8 41.1-15.8 55-30 15.4-13.5 27-32.1 43-43 6.1-6.2 44.8-46.1 19-27-12.3 15.8-28.8 29.6-42 43-11.9 16.9-27.1 30-47 39-11.6 9.3-58.7 26.6-18 8 17.5-11.7 38.9-18.5 51-35 9.8-18.7 31.2-27.5 41-45 7.7-20.5 29.9-26.6 42-43 30.1-32.3-8-4-18 7-18.3 9.7-23.4 32.8-38 46-18.2 11.1-28.9 30.7-44 43-17.2 10.8-33 23.3-53 32-19.4 8.6-46.3 30.9-9 9 14.5-2.7-28.9 16.5-36 25m85-1c19.4 2.4 36.1-5.1 53-9 17.6-7.8 28.4-14.7 36-13 15.8-5.1 28.1-14.2 40-24 12-8.6 24.7-18.8 36-27 8.1-13 30-12.5 46-18 34.2-9 5.9-9-12-1-19.9 0.9-30.7 11.5-45 19-5.4 5.6-36.8 31.3-16 13 9.8-11.5 23.1-19.7 36-29 15.8-4.7 33.1-8.9 45-19 26.5-14.9 6.7-12.8-8 0-13.8 7.4-34.6 9.4-46 17-13.5 8.3-21.9 21.2-34 31-10.5 10.5-19 23.4-36 28-17.8 3.5-28.4 14.3-45 19-14.5 6.5-35.2 8.7-50 13m-14-1c-25 6.7 28.8-15.1 40-16 23.9-4.1 36.8-21.5 52-33 19.5-12.7-19.8 23.7-29 26-17.3 11.2-46.2 12.7-63 23m46 0c20 3.1 39-3.5 46-14-12.5 3.4-30.2 11.3-46 14m-595-3c-23.5-3-44.5-9.3-64-18-4.8-1.3-9.8-3.2-15-6-9-0.5-1.3 3.8 0 5 19.3 8.4-12.4-2.1-18-5-14.1-12.2-35.6-18.1-54-28-8.7-14.5-28.9-30.4-36-39 18.3 10.5 47.8 8.4 58 24 16.1 12.9 31.2 25.3 45 38 15.5 12.8 42.2 13.5 61 22 4.8 2.2 10 3.9 15 5h16c29.7 2.6 5.1 3.2-8 2m36-5c-18.5-2.9-37.2-6.5-52-15-14.1-7.2-24.2-19.4-37-30-8.4-8.7 20 16 26 21 4.4 8 49.7 22.5 20 7-14.8-5.8-21.5-21.4-37-29-17-13.5-17.4-27.1-1-4 13.9 9.7 23.8 21.9 36 28 14 9.3 25.2 20.4 45 22m69-4c7.8 6 17.8 16.8 23 17-3.3-8-15.1-16-23-17m540 0c15.7-3.3 31.3-13.4 48-19 15.7-6.8 32-15 44-24 5.7-17-22 13.9-31 14-14.3 3.5 22.7-14.8 25-22 10.3-12.3 36.5-12 45-22-18.1 4.1-38.9 7.8-50 18-12 10.3-26.5 20.3-38 30-11.4 11.1-31.6 15.3-43 25m-721-2c-12.8 1.8-28.3-2.4-44-3-11.8 0.9-26.1-12.1-27-14 13.6 10.9 18.1 8.7 30 9 14 3 28.4 4.9 41 8m338-12c-2.5-13.8-4.8-31-5-47 4.5-7.8 3.7-40.6 8-34-3.5 15.1 2.4 44.6-7 34 0.3 17.6 5.2 29.8 4 47m73-1c-3.3-11.3 7.3-41.7-1-43-3.8 35.9 0.3-8.8-1-20-3-35.8 4.7-0.2 4 14 5.3 14-1.4 35-2 49m-81-4c-3.2-17.2-5.2-38.9-10-55-4.1-19.2 3.5-41.1-1-61 5.8 12.7 0.4 44.5 4 59 7.2 15.3 4.8 39 7 57m398-1c18.8-4.1 33-20.9 42-36 7.9-14.5 28.3-26.6 46-32-19.3-1.2-40 11.4-50 25-11.3 15.6-22.7 32.9-38 43m-161-8c9.6-3 19.5-13.4 32-17 10.8-5.5 26.5-8.7 32-18 10.1-7.1 14.4-19.9 26-25 8.3-8.6 18.9-16.8 24-26 7.8-9.9 10.6-24.2 13-39 3.5-13.1 12.6-22.7 18-32 7.7-9 19.8-15.6 27-23-6.2 0.9-21.9 10.4-27 18-8.5 8.4-15 19-20 31-6.4 10.2-4.8 30.6-12 38-1.5 6.7-25.1 30.6-13 13 9.5-1.1 21.6-32.2 8-14-8.7 8.5-15.8 18.7-23 28-8.3 8.8-16.5 19.4-26 25-11.5 4.8-23.1 11.9-32 18-9.5 6.9-20.9 14.2-27 23m-378-3c-8.5-9.4-16.4-22.7-27-30-4.3-5.3-30.1-28.3-13-18-11.7-17.6 14.4 12.1 16 16 7.5 12.1 17.9 20.5 24 32m22-15c-9.2-8.1-14-21.3-22-32-7.7-9.5-18.9-16.4-26-28-5.3-10.7 1.6-29.6 2-45-2.4-13.1-0.2-31.8 0-48 2.6 1.5 1.7 31 3 42 0.7 16.1-7.8 32.9-1 48 5 14 17.9 19.1 23 31 7.4 11 14.6 23.4 21 32m-283-1c7.4 9.5 21.9 11.2 31 18 7.7 2.1 30.5 14.9 28 7-6.1-8.8-17.7-13.4-27-21-7.8-8-15.9-16.1-28-21-6.4-2-38.6-12.7-19-1 11.1 5.3 24.4 8.3 32 16 12 11 19.4 17.7 0 6-5.3-3.7-32.9-19-17-4m192 0c13.8 10.5 24.7 19.3 3 5-9.6-7.2-20.2-14.7-29-25-11.2-11.9-18.5-24.3-3-6 8.5 10.6 17.4 19.7 29 26m421 0c-1.1-4.3 10.2-21 14-30 6.9-9.9 18-17.5 24-27 5.5-6.9 8.5-32.8 1-42-0.1-16.7 1.8-33.6 2-48 2.8 11.2 1.6 32.8 4 45-2 19.5 7.5 33.3-2 43-5.3 11.7-17.5 16.7-23 28-7.7 9.1-13.8 21.8-20 31m183-5c9-4.2 16.2-19.6 24-26 8.8-8.8 17.9-16.8 29-23 6.1-1.5 33.5-20.9 15-13-9.6 3.7 13.5-13.7 21-16 32.6 0.6-5.5-10-12 0-10.7 6.9-21 13.7-30 22-10.5 6.5-17.3 16.9-25 26-7.4 10-15.8 18.8-22 30m-133-2c11.1-3.7 24.9-14.1 36-19 9.6-9.7 21.1-17 27-30 8.2-10.7 17.3-20.5 20-37 9-9.4 13-24.3 19-37-9.7 4.9-14.4 24.3-22 33-3.6 15.4-10.4 27.5-19 38-7.1 11.5-17.4 20-27 29-11.3 7.8-24.9 13.1-34 23m-92-1c8.3-4.2 10.8-22 17-32 5.5-10.7 10.2-24.8 12-37 4.2-15.5 3.1-30.4 2-48-2.8-13.1-1.1-33.6-7-44-3.2-15.7 2.5-29.9 2-47-0.2-10.6 8.8-44.9-4-26-3 14.5-2.7 31.9-3 49-0.8 18.2 2.4 33.7 3 47 7.3 24.3 1.2 23.2-2-1-2.3-12.8-1.8-32-2-47-1.5-7.4 0.9-51.3-5-29v50c-1.6 19.8 2.3 33 6 45 4.3 13.8 6.7 31 5 43-0.2 16.5-6 27.8-13 38-2.4 14.1-8.3 27-11 39m-313-3c-10.3-8-14.1-26.3-24-36-11.2-7.6-20.4-20.3-21-39-3.6-15.6 0.5-41.7-5-56-4.1-14.5-8.9-31.7-15-45-18.8-22.9 5.9-2.6-9-25-13.7-5.3-48.1-9.6-10-7 21-0.4 15.9 26.7 25 35-0.8 12.7 10.1 27.5 12 42 2.8 18.2 3.9 39.2 6 54-6.3 17.6 17.1 46.3 12 29-5.2-14.6-3.7-38.1-9-52-0.4-18.7-3.3-37.9-8-53-8.1-32.9 5.9 6.8 5 17 5 16.3 3.2 40.1 8 53 2.5 15.8 1.7 37.6 12 46 8.4 11.9 12.9 27.1 21 37m56-3c5.7-21.4-13.2-41.1-16-63-2.5-31.9 15.5-44.2 16-71-2.7-16.3 9.9-84.3 5-37 0 28-3 53.3-13 72-13.8 7.7-0.3 82.5 0 34 1.3-28.2 3.7 41.8 9 45 5.4-26-4.8-57-6-72 6-21.6 16.4-39.4 14-70 3.6-25.3 3.5-55.6 10-76 3.8-63.8-14.6 48.6-8 1-0.7-44.9-8 29.4-7 37-3.3 16.9 0-39.1 2-54-5.3-41.3-4.5 37.5-11 41-8.3 20.9-3.1 54.3-7 79-4.2 22-18.8 44.6-10 71 2.8 25.8 15.6 41.3 22 63m298-4c5.5-20.2 19.7-43.1 12-68-0.6-8.3 0.3-15.1 1-22 3-6.5-2.5 60.7 4 14 7.8-28-9.7-47-5-80 2.5-19.2 1.6-70.7 5-69-3.8 57.1 15.1-58.7 7-5-4.2 24.9-11 48.2-10 79-2.7 26.1 14.2 51.5 4 79 0.7 30.4-7.7 52-18 72m-325-5c-12-12.2-10.2-40.2-11-63 1.7 23.5 1.8 49.6 11 63m321-2c7.1-13.5 8.8-48.9 7-77 1 23.3 4.5 62.4-7 77m-415-5c30 25.6-10.7 2.8-17-8-9.1-10.8-28.8-28.4-26-42 9 17.5 19.2 34.3 31 45 7.1 6.4 4.9-3 2-5-17.5-21 6.2 2.6 10 10m81-5c-8.4-8.5-12.5-51.9-10-51 4.7 4 1.7-12.4 2-15-1.7-40 3.7 30.3 5 9 2.6-3.3 2-13 3-16 1-40.8 3.8-2.4 0 11-6.6 21.3-10.3 43.2 0 62m-8-4c-13.4-12.4-9-45.5-14-67 1.4-26.8-2.5-49.5-4-76 7 21.4 3.6 53.4 7 75 3.4 23.6 0.9 52.7 11 68m89-4c-1.3-13.3-7.7-24.9-7-41-1.4-17.4 3.7-30.1 4-44 3.3-12.2 3.7-29.8 4-43 4-13.9-2.2-28.4 3-41-0.8 7.9 1.8 29.3 0 39-1.6 14.8-0.3 34-4 44-2 13.9-4 29.9-4 44 1.9 14.2 2.6 28.9 4 42m87 0c-6.4-8.9-1.3-35.2-4-47 3 11.5 3 32.6 4 47m68 0c-2-20.4 1.5-48-2-69-4.1 1.9-3.1 8.9-4 14 1.3 35.9-2.2 16.5-1-5-0.9-6.7 1.4-10.5 1-17-0.7-33.3 5.7 8.8 6 17 0.1 24.2 10.6 44.6 0 60m387 0c12.6 0.8 24.8-6.6 34-13 9.1-6 18.8-14.2 28-19-11.3 0.4-21.8 9.4-31 16-8.4 6.6-21.8 11.1-31 16m-918-2c25.7 9.8 21.5-1.8 2-5-12.1-5.1-22.1-14.8-34-20-18.8-14.3-16-1.2-1 5 11.5 7.2 21.5 16.7 33 20m454-2c-1.3-15.7-6-33.7-4-52 1-18.9 6.3-34.8 8-50 0 14.8-4.8 32.6-6 50-2.5 16.9 3.6 35.5 2 52m27-1c-2.4-14.5 4.2-29.9 2-46 0.5-15.5-4.7-32.3-4-44 3.1 14.1 4.6 31.4 6 44 0.8 17-3.1 31.9-4 46m23-5c0.4-29.1-1.9-56.8-7-82 8 22.3 8.7 51.5 7 82m-73-4c-1.2-17.8-1.6-43.8 1-59 5.2-15.8 6.8-34.7 9-53-0.1 20.6-3.5 40.1-7 56-3.2 18.2-1.9 38.9-3 56m361-1c10.7-12.4 12.6-39.5 27-50-15 6.8-22.8 28-27 50m-658-5c6.8-19.6-8.9-39.2-23-49-0.8 2.9 5.5 7.9 6 11 20.6 22.7-2.4 1.3-10-7-4-2.1-8.2-4.8-13-8-26.2-13.8-9.4 3.6 4 9 11.8 15.7 32.8 21.3 36 44m334 0c-4.3-13.5 0.9-37.6-3-53 6.4 12.9 2.8 35.4 3 53m-102-5c-4.9-23.8-14.3-47.7-9-78-2.6 34.9 7.8 52 9 78m448-2c9.2-5.2 23.4-12.9 31-23-9.1 5.3-23.5 12.8-31 23m-757-5c12.1 0.5-14.4-15.7-23-17-2.2-9.6-27 0.1-36 4-25.2 11.2 19.5 2.7 20-4 16.4 3.6 28.1 12.3 39 17m746-1c8.9-7.5 16.6-18.5 25-25 9.6-6.9 21.3-14 29-21-12.5 3.8-23.5 11.7-32 18-8.2 8.3-18.7 16.6-22 28m-651-1c7.6-5.6 1.4-34.6-5-40-4.9-12.8-14.9-23.2-23-32-14.7-16.9-24-6.1-5 3 12.3 10.3 21.1 27.9 5 7-3.1 6.1-18.9-13.7-34-12 3.6 7.4 25.6 11.8 31 20 3.6-7.9 15.3 24.2 21 19 4.2-4.9 8.6 25.8 10 35m783 0c17.2 2.2 35.2-1.7 48-7-15.4-0.5-34 2.7-48 7m-346-3c2.7-13.7 1.1-34.6-4-50-2.1-16.5-6.7-31.6-9-50 5.5 15.2 8.1 32.3 11 49 4.1 14.6 7.7 35.3 2 51m-636-4c13.1 4.6 28.7 10.1 45 7-13.1-3.5-29.9-7.7-45-7m392-5c-4.7-15.7 0.4-35.4 4-50 2-17.7 8.3-31.1 8-52 4.5 15.3-4.3 33.6-6 49-4.2 15.4-7 32.3-6 53m-375-4c12.7-2.4 31.8-8.2 45-13-19.3-3-34.4 6.9-45 13m-16-1c19.7 2.4 33.9-17.6 54-19-24.8-4.8-38.3 16.3-54 19m8-9c2.4 1.7 10.3-3.8 11-5 29.3-9.2-1.3-4.3-9-16-10-13.3-19-29.2-24-50-12.3-39.4-7.5 3.5-1 19 6.8 19.1 17.7 33 23 52m356 0c0.2-20.2 12.5-36.6 12-59 0.1-24.9-2.6-45.3 3-66-1.4 14.4-2.9 44.2-2 66 1.7 25.5-9.3 38.6-13 59m-36-1c-6.1-12.9 3.1-28.3 3-40 2.6-12.7 3.1-27.6 2-44-0.2-12.9-5.9-29.5-2-42 2.2-25.7 0.2 18.7 2 23 2.6 13.8 1.6 32.7 3 45 0.3 15.4 3.6 27.5 2 43-4.8 4.8 2-36.8-5-24-0.3 13.4-6.1 27.5-5 39m287-2c-5.2-10.5-2.4-32.1-5-45 3.3 14 5.5 30.5 5 45m221-2c10.4-7.7 17.1-26.1 29-35-13.4 4.2-21.9 20.7-29 35m-183-5c-6.1-12.1-9.7-27.3-11-45 0.1-20.9 1.7-34.1 0-54 3.2 11.3 2.8 33.6 2 51-0.9 20.9 5.6 33.3 9 48m121-7c9.8-11.8 16.1-33.7 32-42 14.3-11.9 29.1-22.9 48-30-22.5-0.6-35.2 14.9-49 26-14.7 10.9-27 24.2-31 46m214 0c17.3 7.7 26.9-12.1 32-23-7.4 4.2-15.5 23.9-32 23m-742-1c6.6-18.2-10.5-36.9-23-45-16.1-8.5-24.6-24.8-48-27 6.1 6.6 30.4 18.2 40 28 11.7 14 28.8 21.8 31 44m195 0c8.1-6 8.3-29.2 10-43 7-12.7-1.6-35.1 3-50 5.1-26.1-7.6-37.3-5-6 0.8 30.6-4.3 25.5-3-3 4.7-29.4-6.1-31.3-5-4 0.8-36.4-9.1-4.4-4 11 3.4 15.7 5.4 34.1 9 46 1 18.7-4.1 31.6-5 49m-83-4c6.4-5.2 9.3-24.2 10-37 2.9-13.5 1-31.8 1-48 1.3-15.3 6.9-28.4 8-42 4.8-28.8-4.8-11.5-7 4-2.1 20.7-1.5 33.5-6 7-9.9-12.1-0.9 23.2-1 30 2.6 16 2.9 32 0 45-4.8 14.1-4.4 25-5 41m261 0c-0.4-22.6-7.3-41.1-8-63-2.3-20.6-2.7-45.8 0-63-3 26.2 6.9 44.2 5 63-2.5 17.3 6.4 40.6 3 63m180 0c8.6-4.8 20.2-16.6 27-26-8.8 5.7-19.8 18.2-27 26m-31-3c9.9-9.6 18.2-30 32-38 14.8-9.2 24-24 41-31-19.7 0.5-28.5 20.4-42 28-14.5 10.2-26.1 22.6-31 41m-553-5c17.2 16.3 0.7-7.6-5-11-18.3-15.3 0.7 8.1 5 11m-207-1c2.6 10.6 31.2 24.6 27 12-12.1 3.2-29.2-29.8-27-12m829-3c10.3-8.7 25.2-21.7 39-29-16.9 2.6-31.9 15.5-39 29m136 0c13.3 6.1 35.3 3.6 40-6-2.9 4.8-28 3.3-40 6m-961-3c7.5 7 31.7 8.6 41 3-10.5-2-36.2-2.7-41-3m43-3c24.3 3.2 47.4-1.2 66-6-21.8-1.5-45 2.7-66 6m646-1c-1.6-16-5.7-34-3-50 3.8-15.2 2.9-36.5 7-49-0.4 13.4-1.3 36-4 49-5.8 17.3 2.2 31.8 0 50m-376-2c0.2-20.7 5.7-38.8-2-59-3.6-20.1 3.9-46.2-4-60 12.6 16.1 4 36.6 6 58 6.1 18.7 5.3 42.9 0 61m-266-3c12.8 1.3 28.1-2.2 41-3 11.8-4.1 29.3-2 39-8-12.9-1.9-28.4 1.4-41 3-12.9 2.6-28.1 2.7-39 8m845 0c18.4 4.7 46.1 10.9 66 5-17.7-2.3-45.8-6.2-66-5m-98-2c17.1-5.4 29.5-22 49-28-22.4 0-35.7 15.7-49 28m-749-4c13.7 1.8 28.8-3.4 41-7 13.8-3.5 31.8-2.6 44-8-14.2-2-32.2 1.5-45 4-13.8 3.6-27.7 6.8-40 11m830-1c14.3 2.4 30.9 1.2 43 4 10.2 1.1 32.9 7.1 38-1-13.5-1-27.9-2.1-41-5-11.7-0.3-32.4-4.2-40 2m-171-1c7.9-6.3 9.3-28.4 14-39 7-11.1 12-24.1 15-40 4.6-12.6 12.1-23 19-34 10.4-7.8 16.9-19.2 27-27 9.7-8.5 16.9-19.3 29-25-20.1 15.5-3.1 11.2 8 0 13.8-4 25.9-9.9 37-16 13-5.8 26.3-10.6 39-16 25.4-9.4-15-1.3-21 3-12 5.2-25.4 9.9-38 15-13.1 5.2-26 10.3-37 17-9.6 8.7-23.2 13.1-30 24-5.9 8.4-16.3 26.6-21 26 8.5-10 16.5-20 21-33 10.1-8.3 20.5-15.9 28-26 11.7-6.8 24.7-11.8 30-25 10.3-7.1 19.2-16.2 32-21 13.8-4.6 23.7-12.7 37-17 13.8-4.6 26.7-9.8 41-13 14.9-0.4 38-15.5 9-6-13.2 4-30.8 4.3-43 10-8 3.3-38.7 18.3-16 5 12.2-6.1 23.8-12.5 40-14 16-2.3 26.3-10 41-13 15.1-3.2 33.1-3.1 45-9 12.9-2.3 34.2-19.2 8-8-12.2 6.1-26.8 9.4-44 11-14.4 2.8-28.9 6.4-42 11-13.8 6.1-36.3 11-9 1 13.7-3.7 25.6-9.8 37-16 10.4-1.2 36.8-20.5 10-11-11.4 6.6-22.7 13.3-37 17-12.1 6.1-25.8 12.8-37 18-23.4 14.4 1.4-3.6 10-8 11.6-6.1 26.7-9 37-16 13.4-5.3 25.5-11.3 36-18 7.1-1.6 37.7-18.5 20-14-13.9 4-25.5 10.3-38 16-10.2 7.7-21.6 14.2-34 20-7.6-0.6 19.2-11 24-17 9.9-8.4 22.1-14.2 32-22-0.1-7.5-20.8 9-29 12-10 7.9-20.4 15.4-32 21-11.4 7.5-22.2 14.6-33 22-8.9 8.9-15.7 20.1-28 26-20.5 15.1-9.3 5 3-5 7.9-10 19.9-15.9 28-26-0.7-2.3-20.1 11.3-26 18-7.9 10-18.4 17.5-29 25-9.5 8.4-16.9 19-29 25-9.4 8.5-19.8 16-27 27-18.3 19.3-3.3 0.8 4-9 5.9-12.1 19.5-16.5 27-27 5.5-2.5 29.7-28.3 12-16-8.7 9-17.1 18.6-28 25-11.8 7-16.5 20.2-26 29-14.2 27 8.7-20.5-9 6-6.2 12-8.4 27.7-16 39-14.1 22.6 1.5-4.6 4-15-0.9-10.4 19-31.9 9-29-8 9.5-14 21.6-18 36-5.3 12.3-10.8 24.8-13 41-4.3 13.2-3.7 31.9-12 41-5 13.5-8.4 28.2-11 44m-662-7c17.9 1 34.9-6.1 50-11-17.7-1-34.5 6.5-50 11m958 0c-12.6-1.2-23.6-9.7-37-9 10.8 6.5 21.4 12.2 34 15 15-2.1 21.5-11.9 26-24-4.4-2.5-12.2 17.1-23 18m-986-2c-16.5 1.4-27.8-5.2-32-16-7.6 3.8 6 21.2 15 21 15.2 4 27.7-4.8 36-9 16.3-10.2-14.3 1.2-19 4m123 0c16.4 4.7 25.6 26.7 38 26-7.5-12.6-24-27.3-38-26m425-1c12.2-11.6 12.8-42.8 16-65 1.4-5.4-3-18.2-4-7 2 5-1 13.9-1 3-2.9-27.7-7 8-5 18-1.7 59.9-3.5-14.1-3-27-9.7 20.9 0.3 52.8-3 78m218 0c8.4-2.9 16.2-13.9 25-20 5.6-5.4 18.6-18.3 27-13 14.1 2.2 27.8 3.9 43 3 20.3-4.4-17.6-4.9-24-5-29.6-0.4 10.8-1.8 19-1-1.9-7.6-28.2-1.9-38-4-15.7-0.1-20.2 10.8-30 16-6.6 8.6-16.1 16.3-22 24m91-2c13.8 4.3 33.2 3.7 43 8 13.5 0.7 29.1 9.1 41 3-13.9-2.2-28.8-6-41-9-12.4-1.1-30.6-6.5-43-2m-105-5c12.6-7.5 26.1-22.7 36-35 15.1-11.4 43.2 4.3 62-5-18.6-0.9-50.1-8-65 2-13.6 9.6-24.1 23.1-33 38m143-1c12.9 4.6 32.7 11.7 45 9-10-3.8-28.9-10.5-45-9m-89-3c12.9-1.2 28.3-7.7 44-10-18.3-3.6-33.4 3.2-44 10m-681-10c13.7 2.6 27.6 9.1 39 9-7.1-7.5-22.9-12.1-39-9m-180-4c7.8-23.1-10.4-43.5-13-65-0.9-27.7-6.2-52.6-9-78-4.1-23.3-6.8-53-3-78-1.2-27.5 17.3-46 8-73-1.8 26.8-13.9 44.9-16 70-1.8 27.2-1 60.1 4 80 3.6 26.4 6.7 53.5 9 77 3.8 26.3 17.2 43.3 20 67m336-11c-4.2-11.4-5.5-28.9-10-40-1.8-14-7.6-27-11-39 5.2 11.9 13.5 22.3 14 36 1.1 16.2 6.6 29.4 7 43m-237-6c14.6 3.5 30.7-2.4 42-5 12.5-3.8 31.2-3.8 44-6 13.4-3 26.9-8.2 42-8 12.9-3.2 40.2 3 40-2-11.2-5.1-29.7-6.1-44-4-14.5 1.4-28.2 6.5-41 9-12.3 3.8-30.3 4.5-42 7-13.3 4-31.5 4.5-41 9m82-3c20 5 49.7-9 59 6 11.2 10.7 25.8 28 36 30-8.1-15-18.9-29.5-35-36-13.2-9.8-45.7-3.5-60 0m-77-3c20.6-2.1 48.7-5 67-12-23.3 0.5-49.2 5.6-67 12m697-4c15.8 1.1 37.2-0.3 51-5-16.5-1.2-39.2-1.2-51 5m113-8c5 8-33.4-3.5-45-6-12.2-4.8-56.8-2.2-48 4 23.5 0.5 47 0.2 63 6 17.5 6.4 44.7 3.7 59 9 8.8 7.1 65.1 9.6 26 0-8.8-1.3-59-8.3-39-7 12-0.2 57.6 13.3 42 2-17-4.1-39.9-8.3-58-8m-110-3c17.8-2 34.6-11 56-12 17.3 1.7 44.2 10.6 56 4-17.1-5-40.9-4.4-60-9-20.6 2-38.9 8.2-52 17m2-8c9.2-6.3 32.2-8.2 46-12 19.4-2 45.3 4.9 55-2-15.4-4.7-39.3-1.7-56-2-19.5 1.2-38 4.7-45 16m239-8c12.3 4.4 35.6 2.5 41-8-6.3 3.2-28.1 5.6-41 8m-869-4c15.3 2.1 36.1-0.5 52 0 15.2 0.4 39.9 7.8 43 5-8.7-8.4-30.7-6.9-45-10-18.8-0.2-37.1 1.8-50 5m-178-1c7.5 7.7 35.2 10.4 39 4-11.7 0.7-38.5-8.3-39-4m1056-4c18.4 0.6 40.4-2.3 40-24-2.9 15.1-24 19-40 24m-850-2c9.6 1 30.9 3.2 36-2-9.1-0.6-29.6-2.4-36 2m640 0c29.9 0.2 53.5 0.6 83 2 7 0.6 15.3 2.1 19 3 43.5 1.9 11.9-6.7-9-7-16.2 1.3 2.1-2.6 4 0 35.6-2.4-23.2-7.1-31-4-5.7-0.1-14.7-1-21-1h-16c12.4 8.1-21.5 1.3-29 7m-852-11c-2.1 13.3 52 19.7 28 8-18.9 10.3-32.7-38-28-8m125-15c16.6 3.2 42.7-6.3 55 2 11.9-0.2 62.4 3.9 44-3-11.9-5.2-58.2 4.6-44-4-18.7-3.1-41.2 1.4-55 5m745 0c14.2 4.3 41.2 2.9 54 1 14.3-6.3 39.4 4.3 50-2-14.5-2.2-35-7.2-51-4-12.3 6.6-41-1-53 5m-767-3c21.7 3.4 39.8-4.4 59-7-22.1-3.5-39.9 4.5-59 7m834-7c20.1 2.4 40.5 11.4 61 7-19.1-2.7-38.9-10.8-61-7m-62-21c14.2 1.8 29.7-4.7 45-3 14.5-0.6 37.9 3.3 44-2-13.3-2.3-35.1 0.6-47-3-15.2 1.8-31 2.3-42 8m-673-1c26.3 5.6 20.9-4.9 1-5-14.9-2.9-29.5 0.7-45 0-25-2.8-27.5 7.1-3 3 15.9 1.5 35.5-0.2 47 2m67 0c20.4 14.8-13.5-29.5-25-32-21.6-10.1-23.2-32.6-40-47-35.5-28.2 7.2 20.9 8 18-17.1-4.7-22.5-21.3-42-36-30-13.7 19.6 21.3 21 27-16.2-11.8-29.7-29.4-47-41-19.1-10.1-37.9-21.2-55-35-44.7-18.9-2 10 11 16 4.1 4.4 9.2 7 14 9 31.6 16.6-4.1 1.4-15-5-15.3-8.6-43.7-25.2-55-23 19.6 10.4 37.6 22.4 59 30 20.5 10.1 43.3 18.4 59 30-20.2-9.1-39.3-20-62-28-5.5-1.5-9.6-5.1-15-8-30.9-12.5 5.6 12.1 14 13 4.7 3.6 11.7 4.3 15 8 30.5 7.8 25.5 11.5 0 1-18.6-9.9-50.6-9.1-72-17-4.5-1.9-9.3-4.9-16-6-16.7-1.4 20.6 14.5 30 15 30.1 0.9 49 13.1 71 18 18.7-2.4 68.7 30 28 10-19-8.9-48.8-10.1-68-20-26.3-2.7-48.6-10.4-69-21-35.2-7.9 22.8 17.6 31 20 28.7 1.4 49.8 10.4 73 16 22.4 8.3 44.7 17.1 63 26 14.2-0.7 56.8 39.1 32 19-18.3-9.9-39-20.4-60-28-6.2-0.9-11.5-3.3-20-4-4.4 0.5-10.3-1.7-15-1-31.7 0.7 33.6 8.6 5 6-30.3 5.8 42.2 6.4 48 13 11.4 4.5 65.5 32.7 24 14-3.9-2.5-9.2-5-15-7-32.2-15.1-9.4 4.4 5 9 22.1 7.8 38.8 22.2 58 30 9.6 6.5 5-1.1 0-5-18.1-13.3 18.8 11.8 22 16m-270-7c13.7 3.7 25-3.9 36-7-11.9-1.1-26.1 3.5-36 7m843 0c19-4.5 35.3-20.1 53-28 12.5-0.9 56.6-32.3 20-15-15.2 8.1-55 27.1-18 6 17.5-10.2 37.5-17.7 63-19 5.8-1.7 15.6-1.8 18-4 11.6-8.8-52.5 6.5-16-4 53.6-3.7-1.9-10.7-18 0-20.8 7.5-40.9 16.8-57 27-14.5 12.9-27.9 27-45 37m222-7c10.4 4.6 26.7 10.6 38 7-10.1-3.4-25.9-8.9-38-7m-993-6c19.1 2.5 46.5 3.4 60-2-18.6-1.3-46.1-2.4-60 2m897-2c15.2 5.7 44.3 4.4 60 2-14-5-42.6-2.8-60-2m-926-1c16.7 2.5 36.3 1 49-3-15.1-1.7-35.3-0.8-49 3m966-3c13.5 4 33.1 5.5 49 3-13.2-3.4-32.9-4.9-49-3m90 0c-10.3 2.5-45-8.8-28 1 6.1 6.9 48.1 2.1 28-1m-210-3c10.8-0.8 25.5-5.6 35-11 12.7-3.7 20.8-11.9 39-10 14-2.3 30.5-2.1 39-9-7-0.9-26.5 2.6-39 3-20-0.4 20.5-1.8 24-6-14-2.4-28.8 2.5-42 4 14.1 4.9-19.6 6.6-24 13-8.7 6.9-21.8 10.1-32 16m170-5c15.2 3.7 43 11.1 50-4-3.5 7-35.2 0.1-50 4m-1066-1c11.6 10.8 43.6 4.6 49-4 0.5-6.5-37.6-1.1-46-9-16.2 6.2 24.9 15.4 36 9 12.5 5.8-44 1.4-39 4m958-4c16.6 1.1 38-2.4 49-9-15.4 0.6-36.4 4.5-49 9m104 0c20.5 1.2 53 5.8 57-11-10.1 9.1-41.1 6-57 11m-40-6c14.4 4.8 38.7 2.8 49-3-10.9-0.9-34.7 0.2-49 3m-979-3c11.5 6.7 37 6.7 51 4-12.8-4.4-36.9-4.4-51-4m65 0c13.1 7.4 37.1 10.4 50 10-11.4-6.9-35.1-8.7-50-10m775-5c14.6-8.8 28.3-26.1 42-37-17.4 5.7-31.8 22.3-42 37m183-1c16.8 4 46.1 3.8 51-11-3.6 10.2-34.6 7-51 11m-913-2c-11 1.7-66.4-10.1-37 2 21.1 3.3 44.6 3.8 60 11 7.7 5.2 56.3 23 27 7-16.7-5.4-29.1-19.7-50-20m-153-2c7.8 6.3 48.7 10.6 45 2-15 4.1-47.4-10.4-45-2m14-8c9.9 6.1 35.3 6 44 0-9.9-0.7-29.9 1.5-44 0m1044 0c10.2 5.7 37.9 6.9 45-1-11.7 3.8-32.7-0.8-45 1m-1057-13c16.2 9.6 47.5 8.5 61 0-17.3 1.2-48-1.3-61 0m1097 0c-26.1-1.4-65.4-3.2-23 7 19.6 8.8 62.9-20.6 23-7m-45-5c22 6.2 48.2 1.3 59-9-11.9 4-41 6.2-59 9m-1049-6c12.6 6.9 44.2 13 57 5-18.5-0.1-48.3-7.7-57-5m1053-4c21.5 3.3 42.7-0.5 55-9-14 3.6-36.9 5.7-55 9m-129-1c18.4-4.9 30.9-21.5 45-33-17.3 5.2-28.9 22.6-45 33m89-4c14.1-1.9 38.3-2.7 48-11 15.6-3.4 29.4-9.3 41-18-15.3 0.9-28.6 12.5-44 15-10.3 8.9-34.2 4.7-45 14m61-2c11.2 1.3 27.7-1 34-9-9.4 1.5-22.8 6.9-34 9m-1075-2c11 9.4 39.8 12.3 54 9-13.4-3.6-41.3-5.5-54-9m1059 0c15.4 3.2 35.4-5.3 49-10-14.3-1.9-31.8 7.6-49 10m-1059-5c7.5 5.3 26 10.2 34 6-11-0.4-25.2-8.4-34-6m5-4c11.6 6.1 26.5 8.3 40 11 10.4 4.5 32.8 8.3 41 4-7.5-4-30-1.9-40-9-13.5-0.7-28-8.1-41-6m1021-4c14.3 2 28.1-4.5 40-9 12.5-4.3 24-9.9 33-18-11.3 1.3-23.8 9.1-36 13-11 6-25.3 8.9-37 14m-61-1c17-5.1 32.3-18.1 47-29-16.3 6.1-32.2 18.5-47 29m66-7c12.3 1.1 26.7-4.1 35-11 10.8-4.7 16.8-16.7 25-22-12.6-1.3-16.4 14.4-28 18-8.6 6.9-23.3 10.2-32 15m-890-2c11.6 11 27.2 28.1 40 28-11.6-9.5-26.6-27.1-40-28m-121-9c11.8 6.4 25.7 12.1 38 15 15.3 8.1 37.5 4.8 11-2-15.1-1.7-25.8-10.6-38-15-12.6-9.3-33.2-8.5-11 2m21 0c10.7 6.8 23 11.8 37 14 3.4-5.1-20.5-9.2-28-16-12.5-3.5-14.4-18.7-28-23 0.4 3 10.4 20.9 19 25m71 0c10.5 12.5 52.9 28.1 18 6-11.5-10.8-52.4-27.8-18-6z"/> </svg>